<svg xmlns="http://www.w3.org/2000/svg" xmlns:xlink="http://www.w3.org/1999/xlink" width="2730" zoomAndPan="magnify" viewBox="0 0 2047.5 1151.999944" height="1536" preserveAspectRatio="xMidYMid meet" version="1.0"><defs><clipPath id="27045ab066"><path d="M 346 166 L 1700 166 L 1700 985.976562 L 346 985.976562 Z M 346 166 " clip-rule="nonzero"/></clipPath></defs><g clip-path="url(#27045ab066)"><path fill="#ffc7de" d="M 819.605469 481.898438 C 839.363281 491.351562 860.75 487.976562 876.5625 472.847656 C 878.929688 470.585938 881.109375 468.128906 883.414062 465.792969 C 884.3125 464.882812 885.308594 464.066406 886.5 462.992188 C 890.820312 470.914062 896.058594 477.496094 903.371094 482.085938 C 910.511719 486.5625 918.292969 488.929688 926.84375 489.136719 C 935.714844 489.347656 942.960938 485.179688 950.9375 480.359375 C 950.332031 485.035156 949.816406 488.589844 949.425781 492.15625 C 947.953125 505.6875 946.355469 519.210938 945.167969 532.769531 C 944.800781 537 945.046875 541.441406 945.898438 545.605469 C 948.910156 560.226562 966.433594 569.515625 980.253906 560.378906 C 985.777344 556.730469 989.941406 552.054688 992.359375 545.96875 C 993.949219 541.980469 995.457031 537.863281 996.222656 533.664062 C 999.824219 513.832031 1003.171875 493.953125 1006.582031 474.085938 C 1007.292969 469.949219 1007.890625 465.789062 1008.648438 460.933594 C 1009.941406 462.027344 1010.503906 462.40625 1010.9375 462.894531 C 1016.34375 468.933594 1022.851562 473.433594 1030.515625 475.964844 C 1044.628906 480.625 1058.613281 480.710938 1072.226562 473.917969 C 1084.5625 467.757812 1093.226562 457.738281 1100.351562 446.386719 C 1108.601562 433.242188 1113.664062 418.769531 1115.949219 403.417969 C 1118.277344 387.769531 1118.222656 372.175781 1114.316406 356.699219 C 1107.75 330.675781 1087.914062 315.550781 1064.246094 314.871094 C 1048.480469 314.414062 1034.570312 318.632812 1024 331.105469 C 1023.632812 331.535156 1023.035156 331.765625 1022.421875 332.171875 C 1021.1875 328.214844 1020.367188 324.492188 1018.882812 321.054688 C 1015.476562 313.167969 1006.460938 307.769531 998.078125 308.285156 C 988.105469 308.902344 979.84375 314.203125 977.488281 322.757812 C 976.160156 327.566406 974.628906 332.363281 973.871094 337.273438 C 969.890625 362.988281 966.171875 388.746094 962.214844 414.460938 C 961.867188 416.734375 960.796875 419.082031 959.46875 420.980469 C 956.398438 425.359375 952.007812 428.09375 946.882812 429.566406 C 938.976562 431.832031 931.222656 428.222656 928.539062 420.496094 C 927.328125 417.015625 926.597656 413.023438 926.972656 409.402344 C 928.160156 397.925781 929.867188 386.5 931.5625 375.085938 C 933.589844 361.453125 935.84375 347.851562 937.929688 334.226562 C 938.582031 329.964844 937.667969 325.875 935.121094 322.445312 C 930.253906 315.878906 923.664062 312.746094 915.382812 313.492188 C 906.703125 314.277344 901.664062 319.324219 899.292969 327.359375 C 898.273438 330.816406 897.554688 334.359375 896.527344 338.566406 C 894.703125 337.4375 893.410156 336.644531 892.125 335.839844 C 881.371094 329.121094 869.609375 325.324219 857.015625 324.597656 C 835.71875 323.371094 818.332031 331.386719 804.613281 347.617188 C 792.292969 362.199219 785.148438 379.230469 780.925781 397.617188 C 776.835938 415.433594 778.738281 432.671875 787.1875 448.882812 C 794.597656 463.085938 804.800781 474.8125 819.605469 481.898438 Z M 1016 394.660156 C 1018.402344 385.320312 1020.402344 375.886719 1025.941406 367.660156 C 1030.789062 360.460938 1040.945312 355.59375 1049.289062 357.429688 C 1055.207031 358.734375 1059.683594 362.480469 1061.492188 368.285156 C 1063.273438 373.992188 1064.15625 379.972656 1064.886719 383.339844 C 1064.070312 398.730469 1061.066406 410.523438 1051.421875 419.738281 C 1048.089844 422.925781 1044.242188 425.023438 1039.773438 426.117188 C 1032.011719 428.011719 1025.167969 425.5 1021.007812 418.734375 C 1016.480469 411.363281 1013.71875 403.53125 1016 394.660156 Z M 847.242188 366.730469 C 851.726562 362.300781 856.980469 359.097656 863.386719 358.078125 C 871.570312 356.773438 878.300781 359.519531 883.976562 365.257812 C 885.734375 367.035156 886.589844 369.039062 886.023438 371.789062 C 883.015625 386.3125 880.070312 400.851562 873.269531 414.207031 C 871.089844 418.488281 868.753906 422.769531 865.890625 426.609375 C 858.546875 436.460938 844.246094 436.75 837.714844 423.691406 C 834.394531 417.046875 832.84375 410.125 832.796875 401.230469 C 833.59375 389.148438 837.226562 376.617188 847.242188 366.730469 Z M 551.003906 563.035156 C 550.257812 556.058594 550.523438 549.226562 551.578125 542.449219 C 555.625 516.414062 559.75 490.382812 564.238281 464.417969 C 570.78125 426.574219 577.53125 388.757812 584.496094 350.984375 C 586.304688 341.191406 588.894531 331.503906 591.742188 321.949219 C 594.355469 313.175781 599.996094 306.460938 608.351562 302.398438 C 610.792969 301.210938 613.503906 300.25 616.183594 299.929688 C 626.03125 298.75 643.078125 304.847656 647.863281 318.609375 C 650.046875 324.882812 651.144531 331.269531 651.429688 337.84375 C 652.023438 351.679688 650.671875 365.390625 648.792969 379.074219 C 647.320312 389.816406 646.023438 400.585938 644.652344 411.332031 C 647.882812 411.949219 687.410156 405.183594 696.117188 402.449219 C 697.511719 394.632812 698.9375 386.855469 700.285156 379.066406 C 703.660156 359.53125 707.183594 340.015625 713.90625 321.296875 C 715.984375 315.503906 718.765625 309.847656 721.992188 304.601562 C 728.902344 293.375 743.683594 287.730469 755.765625 291.140625 C 767.300781 294.394531 775.570312 305.15625 775.546875 318.429688 C 775.53125 327.003906 774.558594 335.644531 773.207031 344.128906 C 769.386719 368.113281 765.121094 392.027344 761.082031 415.976562 C 756.933594 440.601562 752.972656 465.257812 748.679688 489.859375 C 746.191406 504.105469 743.464844 518.324219 740.316406 532.441406 C 739.171875 537.574219 736.816406 542.515625 734.460938 547.269531 C 731.335938 553.578125 725.96875 557.628906 719.347656 559.878906 C 712.699219 562.136719 706.277344 560.558594 700.292969 557.691406 C 691.773438 553.609375 686.140625 546.855469 683.777344 537.578125 C 680.984375 526.589844 680.515625 515.476562 681.71875 504.226562 C 682.976562 492.410156 683.996094 480.566406 685.105469 468.738281 C 685.167969 468.066406 685.113281 467.382812 685.113281 465.992188 C 667.957031 468.019531 651.246094 471.6875 633.929688 474.8125 C 632.824219 480.953125 631.804688 487.019531 630.625 493.058594 C 626.867188 512.332031 623.164062 531.613281 619.195312 550.84375 C 617.734375 557.929688 615.546875 564.867188 611.839844 571.191406 C 607.566406 578.472656 602.222656 584.417969 594.101562 587.84375 C 576.710938 595.183594 553.265625 584.164062 551.003906 563.035156 Z M 530.207031 768.925781 C 526.152344 763.632812 521.308594 758.949219 516.3125 753.4375 C 517.234375 752.449219 518.386719 751.214844 519.542969 749.988281 C 525.644531 743.507812 530.539062 736.253906 533.476562 727.8125 C 543.371094 699.34375 535.925781 668.347656 512.222656 647.289062 C 493.984375 631.09375 472.671875 621.984375 448.027344 620.652344 C 422.273438 619.265625 397.417969 622.851562 373.632812 632.816406 C 366.675781 635.730469 360.234375 639.851562 353.425781 643.144531 C 347.324219 646.09375 346.175781 651.136719 347.234375 656.996094 C 347.804688 660.160156 348.960938 663.304688 350.347656 666.226562 C 354.203125 674.375 360.453125 680.511719 367.542969 685.898438 C 372.164062 689.410156 377 691.589844 382.90625 689.488281 C 383.285156 689.351562 383.816406 689.648438 384.445312 689.78125 C 384.445312 691.59375 384.597656 693.308594 384.421875 694.988281 C 382.292969 715.382812 380.597656 735.839844 377.84375 756.148438 C 374.09375 783.808594 369.4375 811.339844 365.367188 838.957031 C 364.164062 847.125 363.222656 855.378906 362.917969 863.625 C 362.644531 871.179688 365.996094 877.234375 372.785156 881.179688 C 378.824219 884.6875 385.28125 887.035156 392.089844 888.320312 C 399.277344 889.675781 406.171875 888.636719 412.589844 884.949219 C 414.050781 884.113281 415.566406 883.371094 416.355469 882.957031 C 422.375 885.664062 427.585938 888.375 433.054688 890.386719 C 443.058594 894.066406 453.535156 894.863281 464.136719 894.707031 C 483.691406 894.417969 500.722656 887.660156 514.480469 873.914062 C 535.949219 852.464844 545.703125 826.8125 540.394531 796.273438 C 538.707031 786.511719 536.328125 776.925781 530.207031 768.925781 Z M 475.484375 820.390625 C 465.21875 831.503906 447.902344 833.980469 435.160156 826.355469 C 432.527344 824.78125 431.136719 823.042969 431.632812 819.710938 C 433.644531 806.242188 435.441406 792.746094 437.300781 779.257812 C 437.589844 777.171875 438.597656 775.679688 440.660156 775.128906 C 445.105469 773.933594 449.574219 772.820312 454.03125 771.671875 C 469.574219 772.605469 481.445312 782.511719 483.382812 797.167969 C 484.554688 806.074219 481.535156 813.839844 475.484375 820.390625 Z M 462.714844 730.957031 C 456.398438 732.304688 450.097656 731.8125 443.308594 730.828125 C 444.789062 712.035156 446.257812 693.429688 447.753906 674.496094 C 466.804688 672.074219 484.472656 686.203125 484.449219 704.820312 C 484.429688 718.640625 477.785156 727.746094 462.714844 730.957031 Z M 816.457031 875.222656 C 815.222656 871.664062 813.507812 868.242188 811.714844 864.917969 C 807.546875 857.175781 802.949219 849.65625 798.980469 841.820312 C 790.550781 825.1875 781.523438 808.917969 771.042969 793.480469 C 770.1875 792.226562 769.496094 790.859375 768.453125 789.0625 C 770.667969 787.824219 772.289062 786.863281 773.953125 785.988281 C 795.792969 774.539062 809.207031 756.640625 814.585938 732.695312 C 816.558594 723.921875 817.664062 715.039062 816.578125 706 C 814.121094 685.609375 803.679688 669.011719 789.367188 655.519531 C 770.269531 637.515625 746.449219 629.152344 720.226562 627.886719 C 706.03125 627.203125 692.019531 629.332031 677.957031 630.726562 C 657.199219 632.78125 637.414062 638.648438 618.082031 646.179688 C 612.136719 648.496094 610.199219 652.222656 611.792969 658.445312 C 612.71875 662.0625 614.195312 665.671875 616.117188 668.871094 C 621.214844 677.355469 628.136719 684.34375 635.105469 691.324219 C 639.4375 695.664062 643.949219 696.761719 649.585938 695.007812 C 652.453125 694.113281 655.425781 693.554688 659.0625 692.675781 C 658.433594 698.570312 657.984375 703.683594 657.332031 708.769531 C 655.445312 723.46875 653.367188 738.144531 651.578125 752.855469 C 649.933594 766.371094 648.695312 779.933594 647.042969 793.445312 C 644.300781 815.855469 641.277344 838.226562 638.585938 860.640625 C 637.738281 867.722656 638.078125 874.6875 642.367188 881.023438 C 648.835938 890.585938 657.996094 894.757812 669.164062 895.066406 C 684.191406 895.476562 695.449219 887.238281 699.695312 872.917969 C 700.230469 871.105469 700.660156 869.25 701.039062 867.394531 C 704.625 849.8125 707.417969 832.121094 708.535156 814.191406 C 708.652344 812.277344 708.597656 810.253906 710.121094 808.128906 C 711.257812 810.097656 712.125 811.554688 712.949219 813.03125 C 725.589844 835.59375 738.242188 858.15625 750.863281 880.734375 C 754.117188 886.554688 758.304688 891.539062 763.910156 895.179688 C 776.59375 903.417969 789.96875 903.167969 803.492188 897.75 C 806.757812 896.441406 809.832031 894.199219 812.441406 891.789062 C 817.3125 887.285156 818.636719 881.488281 816.457031 875.222656 Z M 747.011719 738.886719 C 740.410156 746.226562 728.253906 750.824219 716.078125 745.273438 C 717.898438 725.246094 719.6875 705.5625 721.453125 686.097656 C 732.632812 683.816406 747.105469 690.351562 752.054688 699.992188 C 758.867188 713.253906 757.199219 727.558594 747.011719 738.886719 Z M 1324.359375 821.523438 C 1334.542969 806.132812 1340.15625 789.089844 1342.691406 770.910156 C 1345.5625 750.3125 1345.078125 729.976562 1338.117188 710.144531 C 1333.652344 697.414062 1328.523438 684.953125 1319.835938 674.414062 C 1295.886719 645.367188 1264.757812 630.925781 1227.355469 629.953125 C 1206.617188 629.410156 1186.523438 633.371094 1167.085938 640.523438 C 1163.730469 641.757812 1160.550781 643.644531 1157.535156 645.605469 C 1150.832031 649.960938 1148.492188 656.316406 1150.265625 663.996094 C 1152.351562 673.03125 1156.390625 681.15625 1162.46875 688.242188 C 1165.1875 691.414062 1168.476562 692.765625 1172.570312 692.027344 C 1176.257812 691.367188 1179.929688 690.621094 1183.824219 689.867188 C 1183.949219 690.894531 1184.191406 691.734375 1184.128906 692.550781 C 1183.269531 703.722656 1182.617188 714.917969 1181.429688 726.058594 C 1179.335938 745.757812 1176.90625 765.421875 1174.625 785.101562 C 1173.734375 792.800781 1173.226562 800.5625 1171.90625 808.191406 C 1169.347656 823.011719 1168.527344 837.972656 1167.472656 852.929688 C 1166.703125 863.78125 1172.957031 873.359375 1185.980469 875.820312 C 1199.644531 878.402344 1213.390625 879.054688 1227.195312 878.339844 C 1240.015625 877.675781 1252.371094 874.816406 1264.34375 869.957031 C 1278.949219 864.019531 1291.464844 854.945312 1303.453125 845.046875 C 1311.601562 838.3125 1318.519531 830.355469 1324.359375 821.523438 Z M 1280.558594 783.988281 C 1271.246094 799.410156 1257.183594 808.433594 1239.554688 811.878906 C 1237.773438 812.230469 1235.859375 811.925781 1233.574219 811.925781 C 1237.574219 770.285156 1241.542969 728.953125 1245.546875 687.28125 C 1273.9375 690.65625 1288.960938 710.445312 1291.558594 734.421875 C 1293.472656 752.082031 1289.726562 768.804688 1280.558594 783.988281 Z M 1152.324219 696.796875 C 1155.070312 699.722656 1156.136719 702.488281 1155.710938 706.433594 C 1153.636719 725.796875 1151.703125 745.179688 1149.886719 764.570312 C 1149.179688 772.121094 1149.167969 779.738281 1148.402344 787.28125 C 1146.828125 802.703125 1145.457031 818.175781 1143.070312 833.480469 C 1140.089844 852.574219 1121.421875 863.714844 1102.730469 858.339844 C 1089.761719 854.613281 1081.710938 844.09375 1081.386719 830.558594 C 1081.121094 819.441406 1083.566406 808.636719 1085.054688 797.71875 C 1086.121094 789.890625 1087.167969 782.0625 1088.335938 773.441406 C 1073.855469 774.503906 1060.050781 775.214844 1046.195312 777.304688 C 1045.421875 784.980469 1044.839844 792.183594 1043.953125 799.347656 C 1042.320312 812.511719 1040.679688 825.679688 1038.707031 838.796875 C 1037.410156 847.40625 1033.496094 854.597656 1026.515625 860.296875 C 1014.667969 869.964844 997.339844 867.3125 987.679688 856.863281 C 982.480469 851.234375 981.140625 844.316406 981.351562 837.183594 C 981.71875 824.789062 982.519531 812.398438 983.472656 800.03125 C 984.492188 786.804688 985.859375 773.597656 987.140625 760.390625 C 990.191406 729 993.199219 697.605469 996.417969 666.234375 C 997.15625 659.058594 998.277344 651.867188 999.929688 644.847656 C 1001.535156 638.027344 1004.910156 631.910156 1010.953125 627.871094 C 1013.332031 626.28125 1016.085938 624.816406 1018.855469 624.316406 C 1029.960938 622.300781 1040.519531 623.0625 1049.1875 631.632812 C 1053.449219 635.839844 1055.480469 640.96875 1056.394531 646.734375 C 1057.875 656.054688 1056.640625 665.347656 1055.964844 674.601562 C 1054.960938 688.351562 1053.402344 702.058594 1052.074219 715.785156 C 1051.726562 719.34375 1051.351562 722.902344 1050.894531 727.375 C 1055.578125 726.839844 1059.308594 726.402344 1063.042969 725.988281 C 1071.953125 724.992188 1080.855469 723.917969 1089.777344 723.066406 C 1092.488281 722.804688 1093.730469 721.792969 1093.996094 719.011719 C 1095.292969 705.292969 1096.648438 691.578125 1098.140625 677.878906 C 1099.355469 666.746094 1100.339844 655.5625 1102.230469 644.539062 C 1105.308594 626.625 1120.675781 615.8125 1138.839844 618.097656 C 1148.605469 619.328125 1153.910156 622.136719 1159.988281 629.570312 C 1158.398438 630.96875 1156.867188 632.511719 1155.144531 633.785156 C 1152.230469 635.933594 1149.109375 637.804688 1146.230469 639.992188 C 1142.269531 642.996094 1139.523438 646.726562 1138.839844 651.9375 C 1136.585938 668.953125 1140.457031 684.140625 1152.324219 696.796875 Z M 1338.429688 465.996094 C 1350.5625 472.304688 1363.035156 472.992188 1375.832031 467.558594 C 1384.40625 463.925781 1390.597656 457.566406 1396.601562 450.859375 C 1397.550781 449.800781 1398.617188 448.847656 1400.460938 447.023438 C 1399.925781 457.164062 1399.460938 466.03125 1398.953125 475.734375 C 1396.550781 475.734375 1394.832031 475.585938 1393.148438 475.761719 C 1387.324219 476.375 1381.425781 476.667969 1375.71875 477.863281 C 1353.316406 482.550781 1335.582031 493.703125 1324.957031 514.800781 C 1317.242188 530.113281 1317.730469 545.425781 1324.367188 560.707031 C 1333.261719 581.191406 1358.941406 593.824219 1378.222656 592.753906 C 1400.527344 591.511719 1416.265625 581.058594 1425.929688 561.101562 C 1430.785156 551.078125 1433.738281 540.472656 1435.355469 529.519531 C 1437.316406 516.226562 1438.589844 502.820312 1440.863281 489.585938 C 1443.496094 474.25 1444.039062 458.75 1445.476562 443.320312 C 1447.308594 423.605469 1448.84375 403.851562 1451.003906 384.167969 C 1452.957031 366.363281 1455.679688 348.648438 1457.84375 330.863281 C 1458.378906 326.441406 1458.503906 321.878906 1458.085938 317.445312 C 1457.113281 307.117188 1447.933594 298.792969 1436.734375 297.488281 C 1427.351562 296.390625 1419.90625 299.296875 1414.359375 307.253906 C 1410.625 312.613281 1409.515625 318.585938 1408.84375 324.777344 C 1407.871094 333.679688 1407.675781 342.726562 1405.933594 351.46875 C 1403.242188 364.960938 1399.605469 378.269531 1396.191406 391.609375 C 1394.328125 398.898438 1390.425781 405.273438 1386.03125 411.257812 C 1380.339844 419.011719 1372.414062 421.707031 1363.179688 419.488281 C 1354.550781 417.417969 1350.390625 410.96875 1349.40625 402.636719 C 1348.683594 396.511719 1348.285156 390.234375 1348.753906 384.101562 C 1349.867188 369.503906 1351.664062 354.960938 1353.023438 340.382812 C 1353.6875 333.242188 1352.503906 326.277344 1349.777344 319.640625 C 1348.164062 315.71875 1345.558594 312.535156 1341.722656 310.523438 C 1331.558594 305.1875 1319.960938 307.28125 1312.753906 316.144531 C 1310.179688 319.3125 1307.914062 322.949219 1306.433594 326.730469 C 1304.5 331.667969 1303.109375 336.894531 1302.136719 342.113281 C 1297.59375 366.457031 1298.058594 390.945312 1302.355469 415.15625 C 1306.304688 437.425781 1317.765625 455.253906 1338.429688 465.996094 Z M 1394.085938 521.878906 C 1391.835938 528.351562 1389.171875 534.71875 1386.167969 540.882812 C 1384.949219 543.386719 1382.65625 545.570312 1380.414062 547.34375 C 1374.777344 551.796875 1367.882812 551.746094 1362.234375 547.613281 C 1357.878906 544.429688 1355.988281 537.203125 1358.351562 531.109375 C 1362.375 520.738281 1369.972656 514.222656 1380.808594 511.699219 C 1385.453125 510.621094 1390.195312 509.570312 1395.664062 511.332031 C 1395.171875 514.898438 1395.222656 518.59375 1394.085938 521.878906 Z M 1526.195312 810.847656 C 1513.328125 771.335938 1502.851562 731.15625 1492.277344 691 C 1488.019531 674.839844 1483.273438 658.8125 1478.746094 642.722656 C 1477.328125 637.679688 1474.5 633.671875 1469.847656 631.15625 C 1460.429688 626.0625 1450.453125 622.878906 1439.636719 623.84375 C 1434.164062 624.332031 1428.6875 625.378906 1423.375 626.785156 C 1416.679688 628.554688 1410.976562 632.09375 1407.765625 638.585938 C 1405.933594 642.285156 1404.152344 646.042969 1402.773438 649.925781 C 1395.226562 671.191406 1387.84375 692.515625 1380.34375 713.800781 C 1369.125 745.652344 1357.78125 777.460938 1346.667969 809.351562 C 1344.0625 816.816406 1341.582031 824.40625 1340.042969 832.140625 C 1337.609375 844.375 1343.335938 853.632812 1355.238281 857.21875 C 1360.800781 858.894531 1366.644531 859.9375 1372.433594 860.480469 C 1376.824219 860.894531 1381.511719 860.761719 1385.746094 859.65625 C 1396.894531 856.734375 1403.644531 849.300781 1406.222656 837.964844 C 1408.433594 828.222656 1410.921875 818.542969 1413.367188 808.855469 C 1414.609375 803.921875 1414.691406 803.933594 1419.492188 803.816406 C 1431.394531 803.519531 1443.300781 803.3125 1455.199219 802.886719 C 1457.859375 802.792969 1458.855469 803.914062 1459.480469 806.226562 C 1461.019531 811.878906 1462.621094 817.519531 1464.375 823.109375 C 1470.332031 842.097656 1485.4375 853.261719 1505.316406 853.570312 C 1507.722656 853.394531 1510.175781 853.453125 1512.53125 853 C 1520.011719 851.570312 1526.316406 848.339844 1529.066406 840.632812 C 1530.652344 836.191406 1531.246094 831.539062 1530.210938 826.878906 C 1529.015625 821.503906 1527.894531 816.074219 1526.195312 810.847656 Z M 1430.894531 754.691406 C 1430.546875 750.308594 1436.714844 728.4375 1441.089844 721.289062 C 1443.386719 732.308594 1445.675781 743.328125 1448.039062 754.691406 C 1442.019531 754.691406 1436.4375 754.691406 1430.894531 754.691406 Z M 1699.046875 634.921875 C 1697.695312 640.945312 1696.003906 646.992188 1693.597656 652.664062 C 1685.792969 671.054688 1677.410156 689.195312 1669.582031 707.578125 C 1658.71875 733.097656 1648.085938 758.71875 1637.496094 784.355469 C 1629.003906 804.90625 1620.664062 825.519531 1609.355469 844.753906 C 1608.480469 846.238281 1607.699219 847.777344 1606.804688 849.25 C 1592.996094 872.023438 1564.089844 870.039062 1549.15625 853.863281 C 1546.121094 850.574219 1544.835938 846.449219 1544.386719 842.082031 C 1543.734375 835.800781 1544.484375 829.683594 1547.042969 823.867188 C 1552.585938 811.253906 1558.199219 798.667969 1563.738281 786.050781 C 1567.617188 777.214844 1571.394531 768.335938 1575.296875 759.511719 C 1576.132812 757.625 1576.03125 756.117188 1575.089844 754.199219 C 1565.277344 734.253906 1555.707031 714.195312 1545.847656 694.277344 C 1540.347656 683.160156 1534.253906 672.335938 1528.757812 661.21875 C 1525.484375 654.59375 1522.414062 647.800781 1520.039062 640.816406 C 1516.660156 630.867188 1519.882812 624.070312 1529.699219 620.179688 C 1534.117188 618.429688 1538.992188 617.082031 1543.695312 616.976562 C 1550.523438 616.824219 1557.476562 617.453125 1564.203125 618.6875 C 1570.699219 619.878906 1575.808594 624.101562 1579.480469 629.496094 C 1582.859375 634.460938 1585.855469 639.742188 1588.472656 645.148438 C 1594.394531 657.402344 1599.976562 669.816406 1605.710938 682.164062 C 1605.992188 682.777344 1606.371094 683.347656 1607.273438 684.929688 C 1608.429688 682.652344 1609.238281 681.195312 1609.933594 679.683594 C 1615.8125 666.835938 1621.496094 653.894531 1627.613281 641.160156 C 1630.589844 634.96875 1634.039062 628.941406 1637.839844 623.214844 C 1643.734375 614.332031 1652.238281 609.738281 1663.011719 609.148438 C 1669.90625 608.773438 1676.695312 608.359375 1683.542969 610.027344 C 1696.503906 613.191406 1701.203125 625.308594 1699.046875 634.921875 Z M 1111.605469 539.742188 C 1112.230469 554.695312 1127.160156 565.410156 1140.660156 561.011719 C 1149.34375 558.179688 1155.355469 552.074219 1158.71875 543.644531 C 1160.5 539.183594 1162.042969 534.527344 1162.902344 529.816406 C 1166.222656 511.6875 1169.246094 493.503906 1172.328125 475.328125 C 1173.210938 470.132812 1173.914062 464.90625 1174.675781 459.851562 C 1175.34375 459.746094 1175.578125 459.636719 1175.667969 459.707031 C 1176.335938 460.226562 1177.035156 460.722656 1177.609375 461.335938 C 1183.023438 467.101562 1189.394531 471.496094 1196.898438 473.945312 C 1210.84375 478.503906 1224.660156 478.597656 1238.136719 472.019531 C 1250.199219 466.128906 1259.011719 456.597656 1265.808594 445.488281 C 1282.757812 417.789062 1287.800781 387.746094 1280.824219 356.023438 C 1274.722656 328.28125 1253.890625 313.421875 1230.363281 312.792969 C 1214.589844 312.371094 1200.71875 316.644531 1190.160156 329.105469 C 1189.773438 329.5625 1189.089844 329.765625 1188.617188 330.042969 C 1187.425781 326.199219 1186.617188 322.476562 1185.132812 319.039062 C 1181.714844 311.101562 1172.796875 305.691406 1164.375 306.207031 C 1154.328125 306.820312 1145.972656 312.085938 1143.574219 321.113281 C 1142.472656 325.269531 1141.160156 329.394531 1140.441406 333.621094 C 1139.109375 341.429688 1138.265625 349.320312 1137.007812 357.144531 C 1131.992188 388.449219 1126.773438 419.71875 1121.863281 451.035156 C 1118.636719 471.628906 1115.566406 492.253906 1112.921875 512.929688 C 1111.789062 521.785156 1111.230469 530.832031 1111.605469 539.742188 Z M 1182.414062 391.828125 C 1184.835938 382.476562 1186.953125 373.089844 1192.585938 364.9375 C 1197.210938 358.246094 1207.925781 353.492188 1215.757812 355.394531 C 1221.425781 356.773438 1225.472656 360.441406 1227.699219 365.933594 C 1230 371.613281 1230.890625 377.539062 1230.8125 383.652344 C 1230.527344 396.464844 1227.359375 408.160156 1217.859375 417.472656 C 1214.4375 420.828125 1210.433594 422.988281 1205.777344 424.089844 C 1198.085938 425.90625 1191.230469 423.285156 1187.105469 416.480469 C 1182.496094 408.894531 1180.066406 400.894531 1182.414062 391.828125 Z M 982.644531 677.019531 C 978.773438 689.429688 972.65625 694.0625 959.707031 694.777344 C 950.75 695.269531 941.792969 695.714844 932.835938 696.214844 C 931.671875 696.277344 930.515625 696.558594 928.996094 696.796875 C 927.953125 703.882812 926.804688 710.832031 925.929688 717.820312 C 922.695312 743.640625 919.75 769.5 916.308594 795.296875 C 914.125 811.6875 911.257812 827.996094 908.691406 844.335938 C 907.941406 849.101562 907.207031 853.867188 906.386719 858.621094 C 902.652344 880.203125 881.390625 886.941406 864.175781 880.773438 C 854.488281 877.304688 845.355469 866.382812 845.710938 856.816406 C 845.890625 851.996094 846.234375 847.167969 846.730469 842.371094 C 848.589844 824.367188 850.324219 806.347656 852.527344 788.386719 C 854.496094 772.3125 857.136719 756.324219 859.257812 740.261719 C 860.972656 727.28125 862.367188 714.253906 863.871094 701.242188 C 864.003906 700.082031 863.890625 698.894531 863.890625 697.058594 C 860.886719 697.058594 858.183594 697.046875 855.476562 697.0625 C 847.542969 697.109375 839.609375 697.273438 831.675781 697.1875 C 824.707031 697.113281 821.304688 694.867188 819.695312 688.085938 C 817.476562 678.722656 815.863281 669.199219 814.285156 659.691406 C 813.554688 655.292969 813.246094 650.777344 813.21875 646.3125 C 813.183594 639.273438 815.441406 636.207031 822.203125 634.257812 C 825.988281 633.167969 829.957031 632.613281 833.882812 632.15625 C 852.035156 630.039062 870.191406 627.933594 888.367188 626.046875 C 895.222656 625.335938 902.136719 625.003906 909.039062 624.871094 C 929.914062 624.472656 950.792969 624.253906 971.671875 623.96875 C 972.359375 623.960938 973.054688 623.964844 973.742188 623.988281 C 984.019531 624.3125 988.828125 628.5625 988.835938 638.898438 C 988.839844 646.429688 987.695312 654.007812 986.535156 661.484375 C 985.707031 666.734375 984.230469 671.925781 982.644531 677.019531 Z M 636.546875 714.394531 C 635.429688 721.722656 634.5 729.074219 633.582031 736.425781 C 631.949219 749.59375 630.554688 762.792969 628.753906 775.9375 C 625.921875 796.597656 622.800781 817.210938 619.863281 837.859375 C 618.210938 849.460938 616.605469 861.066406 615.136719 872.6875 C 613.921875 882.28125 611.539062 891.230469 604.3125 898.339844 C 594.527344 907.964844 582.976562 910.566406 570.039062 907.09375 C 561.351562 904.761719 554.785156 899.300781 550.183594 891.535156 C 546.761719 885.765625 546.582031 879.410156 546.503906 872.933594 C 547.847656 861.472656 549.105469 849.996094 550.558594 838.550781 C 554.601562 806.765625 558.699219 774.988281 562.835938 743.21875 C 564.769531 728.359375 566.453125 713.457031 568.953125 698.695312 C 571.5 683.660156 580.921875 674.289062 595.382812 669.871094 C 596.847656 669.421875 598.417969 669.28125 599.949219 669.078125 C 602.054688 668.792969 603.632812 669.5625 604.597656 671.53125 C 605.203125 672.769531 605.949219 673.9375 606.574219 675.167969 C 611.316406 684.492188 617.464844 692.757812 625.289062 699.722656 C 627.335938 701.539062 629.488281 703.398438 631.90625 704.605469 C 636.195312 706.746094 637.222656 709.972656 636.546875 714.394531 Z M 409.671875 368.871094 C 419.738281 366.757812 425.230469 363.289062 428.578125 356.738281 C 431.214844 351.578125 432.679688 342.585938 433.308594 336.90625 C 433.566406 330.714844 441.101562 330.5 442.042969 335.84375 C 442.605469 339.050781 444.3125 365.808594 469.851562 366.222656 C 473.492188 366.28125 474.148438 372.402344 470.816406 373.738281 C 462.933594 376.890625 456.132812 382.050781 453.339844 387.253906 C 449.011719 395.308594 447.488281 404.097656 446.46875 413.027344 C 446.125 415.765625 445.808594 418.507812 445.429688 421.242188 C 444.753906 426.167969 443.46875 428 440.625 428.164062 C 437.765625 428.328125 436.167969 426.175781 435.515625 421.046875 C 434.886719 416.101562 432.230469 396.792969 427.140625 389.011719 C 422.53125 381.96875 415.296875 378.328125 409.382812 376.910156 C 404.847656 375.820312 406.257812 369.585938 409.671875 368.871094 Z M 1572.8125 353.179688 C 1582.992188 351.695312 1588.6875 348.578125 1592.4375 342.246094 C 1595.390625 337.261719 1597.410156 328.378906 1598.394531 322.746094 C 1599.042969 316.582031 1606.570312 316.835938 1607.175781 322.226562 C 1607.542969 325.464844 1607.578125 352.273438 1633.042969 354.277344 C 1636.667969 354.566406 1636.945312 360.714844 1633.535156 361.835938 C 1625.472656 364.492188 1618.363281 369.21875 1615.25 374.238281 C 1610.429688 382.007812 1608.363281 390.6875 1606.785156 399.53125 C 1606.273438 402.246094 1605.789062 404.960938 1605.242188 407.664062 C 1604.257812 412.542969 1602.859375 414.289062 1600.015625 414.277344 C 1597.148438 414.265625 1595.6875 412.011719 1595.355469 406.855469 C 1595.035156 401.878906 1593.585938 382.445312 1588.992188 374.363281 C 1584.832031 367.042969 1577.839844 362.960938 1572.027344 361.179688 C 1567.5625 359.816406 1569.359375 353.679688 1572.8125 353.179688 Z M 465.546875 466.945312 C 471.910156 465.609375 475.382812 463.414062 477.503906 459.269531 C 479.167969 456.007812 480.09375 450.320312 480.496094 446.726562 C 480.660156 442.8125 485.421875 442.675781 486.015625 446.050781 C 486.375 448.082031 487.457031 465.003906 503.605469 465.269531 C 505.910156 465.304688 506.324219 469.175781 504.214844 470.019531 C 499.230469 472.011719 494.929688 475.277344 493.160156 478.5625 C 490.421875 483.65625 489.464844 489.21875 488.816406 494.863281 C 488.601562 496.597656 488.398438 498.332031 488.160156 500.058594 C 487.730469 503.175781 486.921875 504.332031 485.125 504.4375 C 483.3125 504.542969 482.304688 503.179688 481.890625 499.941406 C 481.492188 496.8125 479.8125 484.597656 476.59375 479.679688 C 473.675781 475.222656 469.101562 472.921875 465.363281 472.023438 C 462.492188 471.339844 463.386719 467.394531 465.546875 466.945312 Z M 854.4375 951.5 C 849.453125 953.496094 845.152344 956.757812 843.382812 960.046875 C 840.644531 965.140625 839.683594 970.699219 839.035156 976.347656 C 838.820312 978.078125 838.621094 979.8125 838.382812 981.539062 C 837.953125 984.65625 837.140625 985.8125 835.34375 985.917969 C 833.535156 986.023438 832.523438 984.660156 832.109375 981.421875 C 831.714844 978.292969 830.035156 966.082031 826.8125 961.160156 C 823.898438 956.703125 819.324219 954.402344 815.585938 953.503906 C 812.714844 952.820312 813.609375 948.875 815.769531 948.421875 C 822.132812 947.085938 825.609375 944.894531 827.722656 940.75 C 829.390625 937.484375 830.316406 931.796875 830.714844 928.203125 C 830.878906 924.289062 835.640625 924.152344 836.238281 927.53125 C 836.59375 929.5625 837.675781 946.480469 853.828125 946.746094 C 856.125 946.785156 856.542969 950.65625 854.4375 951.5 Z M 1499.71875 421.066406 C 1506.082031 419.730469 1509.558594 417.535156 1511.675781 413.390625 C 1513.339844 410.128906 1514.265625 404.441406 1514.667969 400.847656 C 1514.832031 396.933594 1519.59375 396.796875 1520.1875 400.171875 C 1520.546875 402.203125 1521.628906 419.125 1537.777344 419.390625 C 1540.082031 419.425781 1540.496094 423.296875 1538.386719 424.140625 C 1533.40625 426.132812 1529.101562 429.398438 1527.332031 432.683594 C 1524.597656 437.777344 1523.636719 443.339844 1522.988281 448.984375 C 1522.773438 450.714844 1522.574219 452.453125 1522.335938 454.179688 C 1521.902344 457.296875 1521.09375 458.453125 1519.296875 458.558594 C 1517.488281 458.664062 1516.476562 457.300781 1516.0625 454.0625 C 1515.664062 450.933594 1513.984375 438.71875 1510.765625 433.800781 C 1507.851562 429.34375 1503.273438 427.042969 1499.535156 426.144531 C 1496.664062 425.460938 1497.558594 421.519531 1499.71875 421.066406 Z M 1326.125 925.417969 C 1321.140625 927.414062 1316.839844 930.675781 1315.070312 933.964844 C 1312.332031 939.058594 1311.375 944.617188 1310.726562 950.265625 C 1310.511719 951.996094 1310.308594 953.730469 1310.070312 955.457031 C 1309.640625 958.574219 1308.828125 959.730469 1307.035156 959.835938 C 1305.222656 959.941406 1304.214844 958.578125 1303.800781 955.339844 C 1303.402344 952.210938 1301.722656 939.996094 1298.503906 935.078125 C 1295.585938 930.621094 1291.011719 928.320312 1287.273438 927.421875 C 1284.402344 926.734375 1285.300781 922.792969 1287.457031 922.339844 C 1293.820312 921.003906 1297.292969 918.8125 1299.414062 914.667969 C 1301.078125 911.402344 1302.003906 905.714844 1302.40625 902.121094 C 1302.570312 898.207031 1307.332031 898.070312 1307.925781 901.449219 C 1308.285156 903.480469 1309.363281 920.398438 1325.515625 920.664062 C 1327.816406 920.703125 1328.234375 924.574219 1326.125 925.417969 Z M 929.167969 190.054688 C 935.53125 188.71875 939.007812 186.523438 941.121094 182.378906 C 942.789062 179.117188 943.714844 173.429688 944.113281 169.835938 C 944.28125 165.921875 949.039062 165.785156 949.636719 169.164062 C 949.992188 171.191406 951.074219 188.113281 967.226562 188.378906 C 969.527344 188.414062 969.941406 192.285156 967.835938 193.128906 C 962.851562 195.121094 958.550781 198.386719 956.78125 201.675781 C 954.042969 206.769531 953.082031 212.328125 952.4375 217.972656 C 952.21875 219.703125 952.019531 221.441406 951.78125 223.167969 C 951.351562 226.285156 950.539062 227.441406 948.742188 227.546875 C 946.933594 227.652344 945.925781 226.289062 945.511719 223.050781 C 945.113281 219.921875 943.433594 207.707031 940.214844 202.789062 C 937.296875 198.332031 932.722656 196.03125 928.984375 195.132812 C 926.117188 194.449219 927.007812 190.507812 929.167969 190.054688 Z M 1080.125 956.5625 C 1077.824219 957.484375 1075.835938 958.992188 1075.019531 960.511719 C 1073.757812 962.863281 1073.3125 965.429688 1073.011719 968.039062 C 1072.914062 968.839844 1072.820312 969.636719 1072.710938 970.4375 C 1072.511719 971.875 1072.136719 972.410156 1071.304688 972.457031 C 1070.46875 972.507812 1070.003906 971.875 1069.8125 970.378906 C 1069.628906 968.933594 1068.851562 963.296875 1067.367188 961.023438 C 1066.019531 958.964844 1063.90625 957.902344 1062.179688 957.488281 C 1060.855469 957.167969 1061.269531 955.347656 1062.265625 955.140625 C 1065.203125 954.523438 1066.808594 953.511719 1067.785156 951.597656 C 1068.558594 950.09375 1068.984375 947.464844 1069.167969 945.804688 C 1069.242188 943.996094 1071.441406 943.933594 1071.71875 945.496094 C 1071.882812 946.433594 1072.382812 954.246094 1079.839844 954.367188 C 1080.90625 954.382812 1081.097656 956.171875 1080.125 956.5625 Z M 1633.058594 507.152344 C 1634.433594 507.175781 1634.683594 509.488281 1633.421875 509.988281 C 1630.445312 511.179688 1627.878906 513.128906 1626.824219 515.089844 C 1625.191406 518.132812 1624.617188 521.453125 1624.230469 524.820312 C 1624.101562 525.855469 1623.980469 526.890625 1623.839844 527.921875 C 1623.582031 529.785156 1623.097656 530.476562 1622.023438 530.539062 C 1620.945312 530.597656 1620.339844 529.785156 1620.09375 527.851562 C 1619.855469 525.980469 1618.855469 518.691406 1616.929688 515.753906 C 1615.191406 513.09375 1612.460938 511.71875 1610.226562 511.183594 C 1608.515625 510.773438 1609.046875 508.421875 1610.335938 508.148438 C 1614.136719 507.351562 1616.210938 506.042969 1617.476562 503.566406 C 1618.472656 501.617188 1619.023438 498.222656 1619.261719 496.078125 C 1619.359375 493.738281 1622.203125 493.660156 1622.558594 495.679688 C 1622.773438 496.894531 1623.414062 506.996094 1633.058594 507.152344 Z M 1144.949219 915.886719 C 1140.847656 917.527344 1137.308594 920.210938 1135.855469 922.917969 C 1133.601562 927.109375 1132.8125 931.683594 1132.277344 936.328125 C 1132.097656 937.753906 1131.933594 939.179688 1131.738281 940.601562 C 1131.386719 943.167969 1130.71875 944.121094 1129.238281 944.207031 C 1127.75 944.292969 1126.917969 943.171875 1126.582031 940.507812 C 1126.253906 937.933594 1124.871094 927.886719 1122.222656 923.835938 C 1119.824219 920.167969 1116.058594 918.277344 1112.984375 917.539062 C 1110.621094 916.972656 1111.359375 913.730469 1113.136719 913.355469 C 1118.371094 912.253906 1121.230469 910.453125 1122.972656 907.042969 C 1124.34375 904.359375 1125.105469 899.675781 1125.433594 896.722656 C 1125.570312 893.503906 1129.488281 893.390625 1129.976562 896.167969 C 1130.273438 897.839844 1131.160156 911.761719 1144.449219 911.976562 C 1146.339844 912.007812 1146.683594 915.191406 1144.949219 915.886719 Z M 767.886719 945.1875 C 764.910156 946.378906 762.34375 948.328125 761.289062 950.289062 C 759.65625 953.332031 759.082031 956.652344 758.695312 960.019531 C 758.5625 961.054688 758.445312 962.089844 758.304688 963.121094 C 758.046875 964.984375 757.5625 965.675781 756.488281 965.738281 C 755.410156 965.800781 754.808594 964.984375 754.558594 963.050781 C 754.324219 961.179688 753.320312 953.890625 751.398438 950.953125 C 749.660156 948.292969 746.925781 946.917969 744.695312 946.382812 C 742.980469 945.972656 743.515625 943.621094 744.800781 943.351562 C 748.601562 942.554688 750.679688 941.246094 751.941406 938.769531 C 752.9375 936.820312 753.488281 933.425781 753.726562 931.28125 C 753.824219 928.941406 756.667969 928.863281 757.023438 930.882812 C 757.238281 932.09375 757.882812 942.195312 767.527344 942.351562 C 768.894531 942.375 769.144531 944.683594 767.886719 945.1875 Z M 367.507812 544.449219 C 371.3125 543.652344 373.386719 542.34375 374.648438 539.871094 C 375.644531 537.921875 376.195312 534.523438 376.433594 532.382812 C 376.53125 530.042969 379.375 529.964844 379.730469 531.980469 C 379.945312 533.191406 380.589844 543.296875 390.234375 543.453125 C 391.609375 543.472656 391.859375 545.785156 390.597656 546.289062 C 387.621094 547.480469 385.054688 549.429688 384 551.390625 C 382.363281 554.433594 381.792969 557.753906 381.402344 561.121094 C 381.273438 562.15625 381.15625 563.191406 381.015625 564.222656 C 380.757812 566.085938 380.273438 566.773438 379.199219 566.835938 C 378.121094 566.898438 377.515625 566.085938 377.269531 564.148438 C 377.03125 562.28125 376.03125 554.992188 374.109375 552.054688 C 372.367188 549.394531 369.636719 548.019531 367.402344 547.484375 C 365.6875 547.074219 366.222656 544.722656 367.507812 544.449219 Z M 959.917969 882.035156 C 956.941406 883.226562 954.375 885.175781 953.320312 887.136719 C 951.6875 890.179688 951.113281 893.5 950.726562 896.867188 C 950.597656 897.902344 950.476562 898.9375 950.335938 899.96875 C 950.078125 901.832031 949.59375 902.523438 948.519531 902.585938 C 947.4375 902.644531 946.835938 901.832031 946.589844 899.898438 C 946.351562 898.027344 945.351562 890.738281 943.425781 887.800781 C 941.6875 885.140625 938.957031 883.765625 936.722656 883.230469 C 935.011719 882.820312 935.542969 880.46875 936.832031 880.195312 C 940.632812 879.398438 942.707031 878.089844 943.972656 875.613281 C 944.964844 873.664062 945.519531 870.269531 945.757812 868.125 C 945.855469 865.785156 948.699219 865.707031 949.054688 867.726562 C 949.269531 868.9375 949.910156 879.039062 959.554688 879.199219 C 960.929688 879.222656 961.175781 881.53125 959.917969 882.035156 Z M 808.890625 244.761719 C 812.691406 243.964844 814.765625 242.65625 816.027344 240.183594 C 817.023438 238.234375 817.574219 234.835938 817.8125 232.695312 C 817.910156 230.355469 820.753906 230.277344 821.113281 232.292969 C 821.324219 233.503906 821.96875 243.609375 831.613281 243.765625 C 832.988281 243.785156 833.238281 246.097656 831.976562 246.601562 C 829 247.789062 826.433594 249.738281 825.378906 251.703125 C 823.742188 254.746094 823.171875 258.066406 822.785156 261.433594 C 822.652344 262.464844 822.535156 263.503906 822.394531 264.535156 C 822.136719 266.398438 821.652344 267.085938 820.578125 267.148438 C 819.5 267.210938 818.894531 266.398438 818.648438 264.460938 C 818.410156 262.59375 817.410156 255.304688 815.488281 252.367188 C 813.746094 249.703125 811.015625 248.332031 808.785156 247.796875 C 807.066406 247.386719 807.601562 245.03125 808.890625 244.761719 Z M 1259.957031 231.796875 C 1263.757812 231 1265.835938 229.691406 1267.097656 227.214844 C 1268.09375 225.265625 1268.644531 221.871094 1268.882812 219.726562 C 1268.980469 217.386719 1271.824219 217.308594 1272.179688 219.328125 C 1272.394531 220.539062 1273.039062 230.640625 1282.683594 230.796875 C 1284.058594 230.820312 1284.304688 233.132812 1283.046875 233.632812 C 1280.070312 234.824219 1277.503906 236.773438 1276.449219 238.734375 C 1274.8125 241.777344 1274.238281 245.097656 1273.851562 248.464844 C 1273.722656 249.5 1273.605469 250.535156 1273.460938 251.566406 C 1273.203125 253.429688 1272.71875 254.121094 1271.644531 254.183594 C 1270.566406 254.246094 1269.960938 253.429688 1269.714844 251.496094 C 1269.476562 249.625 1268.476562 242.335938 1266.554688 239.398438 C 1264.8125 236.738281 1262.082031 235.363281 1259.851562 234.828125 C 1258.136719 234.417969 1258.671875 232.066406 1259.957031 231.796875 Z M 1259.957031 231.796875 " fill-opacity="1" fill-rule="nonzero"/></g><path fill="#fc5696" d="M 811.714844 864.917969 C 807.546875 857.175781 802.949219 849.65625 798.980469 841.820312 C 790.550781 825.1875 781.523438 808.917969 771.042969 793.480469 C 770.1875 792.226562 769.496094 790.859375 768.453125 789.0625 C 770.667969 787.824219 772.289062 786.863281 773.953125 785.988281 C 795.792969 774.539062 809.207031 756.640625 814.585938 732.695312 C 816.558594 723.921875 817.664062 715.039062 816.578125 706 C 814.121094 685.609375 803.679688 669.011719 789.367188 655.519531 C 770.269531 637.515625 746.449219 629.152344 720.226562 627.886719 C 706.03125 627.203125 692.019531 629.332031 677.957031 630.726562 C 657.199219 632.78125 637.414062 638.648438 618.082031 646.179688 C 612.136719 648.496094 610.199219 652.222656 611.792969 658.445312 C 612.71875 662.0625 614.195312 665.671875 616.117188 668.871094 C 621.214844 677.355469 628.136719 684.34375 635.105469 691.324219 C 639.4375 695.664062 643.949219 696.761719 649.585938 695.007812 C 652.453125 694.113281 655.425781 693.554688 659.0625 692.675781 C 658.433594 698.570312 657.984375 703.683594 657.332031 708.769531 C 655.445312 723.46875 653.367188 738.144531 651.578125 752.855469 C 649.933594 766.371094 648.695312 779.933594 647.042969 793.445312 C 644.300781 815.855469 641.277344 838.226562 638.585938 860.640625 C 637.738281 867.722656 638.078125 874.6875 642.367188 881.023438 C 648.835938 890.585938 657.996094 894.757812 669.164062 895.066406 C 684.191406 895.476562 695.449219 887.238281 699.695312 872.917969 C 700.230469 871.105469 700.660156 869.25 701.039062 867.394531 C 704.625 849.8125 707.417969 832.121094 708.535156 814.191406 C 708.652344 812.277344 708.597656 810.253906 710.121094 808.128906 C 711.257812 810.097656 712.125 811.554688 712.949219 813.03125 C 725.589844 835.59375 738.242188 858.15625 750.863281 880.734375 C 754.117188 886.554688 758.304688 891.539062 763.910156 895.179688 C 776.59375 903.417969 789.96875 903.167969 803.492188 897.75 C 806.757812 896.441406 809.832031 894.199219 812.441406 891.789062 C 817.3125 887.285156 818.632812 881.484375 816.457031 875.21875 C 815.222656 871.664062 813.507812 868.242188 811.714844 864.917969 Z M 747.011719 738.886719 C 740.410156 746.226562 728.253906 750.824219 716.078125 745.273438 C 717.898438 725.246094 719.6875 705.5625 721.453125 686.097656 C 732.632812 683.816406 747.105469 690.351562 752.054688 699.992188 C 758.867188 713.253906 757.199219 727.558594 747.011719 738.886719 Z M 1338.117188 710.144531 C 1333.652344 697.414062 1328.523438 684.953125 1319.835938 674.414062 C 1295.886719 645.367188 1264.757812 630.925781 1227.355469 629.953125 C 1206.617188 629.410156 1186.523438 633.371094 1167.085938 640.523438 C 1163.730469 641.757812 1160.550781 643.644531 1157.535156 645.605469 C 1150.832031 649.960938 1148.492188 656.316406 1150.265625 663.996094 C 1152.351562 673.03125 1156.390625 681.15625 1162.46875 688.242188 C 1165.1875 691.414062 1168.476562 692.765625 1172.570312 692.027344 C 1176.257812 691.367188 1179.929688 690.621094 1183.824219 689.867188 C 1183.949219 690.894531 1184.191406 691.734375 1184.128906 692.550781 C 1183.269531 703.722656 1182.617188 714.917969 1181.429688 726.058594 C 1179.335938 745.757812 1176.90625 765.421875 1174.625 785.101562 C 1173.734375 792.800781 1173.226562 800.5625 1171.90625 808.191406 C 1169.347656 823.011719 1168.527344 837.972656 1167.472656 852.929688 C 1166.703125 863.78125 1172.957031 873.359375 1185.980469 875.820312 C 1199.644531 878.402344 1213.390625 879.054688 1227.195312 878.339844 C 1240.015625 877.675781 1252.371094 874.816406 1264.34375 869.957031 C 1278.949219 864.019531 1291.464844 854.945312 1303.453125 845.046875 C 1311.601562 838.316406 1318.515625 830.363281 1324.355469 821.53125 C 1334.539062 806.136719 1340.152344 789.09375 1342.6875 770.914062 C 1345.5625 750.3125 1345.078125 729.976562 1338.117188 710.144531 Z M 1280.558594 783.988281 C 1271.246094 799.410156 1257.183594 808.433594 1239.554688 811.878906 C 1237.773438 812.230469 1235.859375 811.925781 1233.574219 811.925781 C 1237.574219 770.285156 1241.542969 728.953125 1245.546875 687.28125 C 1273.9375 690.65625 1288.960938 710.445312 1291.558594 734.421875 C 1293.472656 752.082031 1289.726562 768.804688 1280.558594 783.988281 Z M 1280.558594 783.988281 " fill-opacity="1" fill-rule="nonzero"/><path fill="#ef0061" d="M 1114.320312 356.695312 C 1107.753906 330.671875 1087.917969 315.546875 1064.25 314.867188 C 1048.484375 314.414062 1034.574219 318.628906 1024.003906 331.101562 C 1023.640625 331.53125 1023.039062 331.765625 1022.429688 332.167969 C 1021.191406 328.210938 1020.371094 324.488281 1018.886719 321.054688 C 1015.484375 313.164062 1006.464844 307.765625 998.082031 308.285156 C 988.109375 308.898438 979.847656 314.203125 977.492188 322.753906 C 976.167969 327.5625 974.636719 332.363281 973.875 337.273438 C 969.894531 362.988281 966.175781 388.742188 962.222656 414.460938 C 961.871094 416.730469 960.804688 419.082031 959.472656 420.976562 C 956.40625 425.355469 952.015625 428.09375 946.886719 429.5625 C 938.980469 431.832031 931.226562 428.21875 928.542969 420.496094 C 927.332031 417.011719 926.601562 413.023438 926.980469 409.398438 C 928.164062 397.925781 929.871094 386.5 931.566406 375.082031 C 933.59375 361.449219 935.847656 347.847656 937.933594 334.226562 C 938.585938 329.960938 937.671875 325.875 935.128906 322.441406 C 930.257812 315.878906 923.667969 312.742188 915.390625 313.492188 C 906.707031 314.273438 901.667969 319.324219 899.296875 327.359375 C 898.277344 330.8125 897.558594 334.355469 896.53125 338.5625 C 894.710938 337.433594 893.417969 336.640625 892.128906 335.835938 C 881.378906 329.117188 869.613281 325.320312 857.019531 324.59375 C 835.726562 323.367188 818.335938 331.382812 804.621094 347.613281 C 792.296875 362.195312 785.15625 379.226562 780.933594 397.617188 C 776.839844 415.429688 778.742188 432.667969 787.191406 448.878906 C 794.597656 463.089844 804.800781 474.816406 819.605469 481.902344 C 839.363281 491.355469 860.75 487.980469 876.5625 472.855469 C 878.929688 470.589844 881.109375 468.132812 883.414062 465.800781 C 884.3125 464.890625 885.308594 464.074219 886.5 462.996094 C 890.820312 470.921875 896.058594 477.5 903.371094 482.089844 C 910.511719 486.566406 918.292969 488.9375 926.84375 489.140625 C 935.714844 489.351562 942.960938 485.1875 950.9375 480.363281 C 950.332031 485.042969 949.816406 488.59375 949.425781 492.160156 C 947.953125 505.691406 946.355469 519.21875 945.167969 532.773438 C 944.796875 537.007812 945.042969 541.445312 945.898438 545.609375 C 948.90625 560.230469 966.433594 569.523438 980.253906 560.386719 C 985.777344 556.734375 989.941406 552.058594 992.359375 545.976562 C 993.949219 541.988281 995.457031 537.871094 996.222656 533.671875 C 999.824219 513.839844 1003.171875 493.960938 1006.582031 474.09375 C 1007.292969 469.953125 1007.890625 465.792969 1008.648438 460.9375 C 1009.941406 462.035156 1010.503906 462.410156 1010.9375 462.898438 C 1016.34375 468.9375 1022.851562 473.441406 1030.515625 475.972656 C 1044.628906 480.628906 1058.613281 480.714844 1072.226562 473.921875 C 1084.5625 467.761719 1093.226562 457.742188 1100.351562 446.394531 C 1108.601562 433.246094 1113.664062 418.773438 1115.949219 403.421875 C 1118.285156 387.765625 1118.226562 372.175781 1114.320312 356.695312 Z M 886.019531 371.789062 C 883.015625 386.3125 880.070312 400.851562 873.265625 414.207031 C 871.085938 418.488281 868.75 422.769531 865.886719 426.609375 C 858.542969 436.460938 844.242188 436.75 837.714844 423.691406 C 834.390625 417.046875 832.839844 410.125 832.792969 401.230469 C 833.59375 389.152344 837.222656 376.617188 847.242188 366.730469 C 851.726562 362.304688 856.980469 359.101562 863.386719 358.078125 C 871.570312 356.777344 878.300781 359.523438 883.976562 365.261719 C 885.734375 367.035156 886.589844 369.039062 886.019531 371.789062 Z M 1051.425781 419.742188 C 1048.09375 422.929688 1044.242188 425.027344 1039.777344 426.117188 C 1032.015625 428.011719 1025.171875 425.503906 1021.011719 418.738281 C 1016.480469 411.363281 1013.71875 403.535156 1016 394.664062 C 1018.402344 385.320312 1020.402344 375.890625 1025.941406 367.660156 C 1030.789062 360.464844 1040.945312 355.59375 1049.289062 357.433594 C 1055.207031 358.738281 1059.683594 362.480469 1061.492188 368.289062 C 1063.273438 373.992188 1064.15625 379.972656 1064.886719 383.34375 C 1064.078125 398.730469 1061.074219 410.523438 1051.425781 419.742188 Z M 775.539062 318.425781 C 775.523438 327 774.554688 335.640625 773.199219 344.125 C 769.378906 368.109375 765.113281 392.023438 761.078125 415.972656 C 756.925781 440.597656 752.96875 465.257812 748.671875 489.855469 C 746.1875 504.101562 743.457031 518.320312 740.3125 532.4375 C 739.167969 537.570312 736.8125 542.511719 734.453125 547.269531 C 731.328125 553.574219 725.964844 557.625 719.34375 559.875 C 712.695312 562.136719 706.269531 560.554688 700.285156 557.6875 C 691.765625 553.605469 686.132812 546.855469 683.773438 537.574219 C 680.976562 526.585938 680.511719 515.476562 681.710938 504.222656 C 682.972656 492.40625 683.988281 480.566406 685.097656 468.734375 C 685.160156 468.0625 685.105469 467.382812 685.105469 465.988281 C 667.953125 468.015625 651.242188 471.6875 633.925781 474.808594 C 632.816406 480.949219 631.796875 487.019531 630.621094 493.054688 C 626.863281 512.328125 623.160156 531.609375 619.191406 550.839844 C 617.726562 557.929688 615.542969 564.867188 611.832031 571.1875 C 607.5625 578.46875 602.214844 584.414062 594.097656 587.839844 C 576.707031 595.179688 553.261719 584.164062 551 563.035156 C 550.25 556.058594 550.519531 549.226562 551.570312 542.449219 C 555.617188 516.414062 559.746094 490.382812 564.234375 464.417969 C 570.777344 426.574219 577.527344 388.757812 584.488281 350.984375 C 586.296875 341.191406 588.890625 331.503906 591.734375 321.949219 C 594.351562 313.175781 599.992188 306.460938 608.347656 302.398438 C 610.789062 301.210938 613.5 300.25 616.175781 299.929688 C 626.027344 298.75 643.074219 304.847656 647.859375 318.609375 C 650.039062 324.882812 651.136719 331.269531 651.421875 337.84375 C 652.019531 351.679688 650.667969 365.390625 648.789062 379.074219 C 647.3125 389.816406 646.015625 400.585938 644.644531 411.332031 C 647.875 411.949219 687.40625 405.183594 696.113281 402.449219 C 697.507812 394.632812 698.933594 386.855469 700.28125 379.066406 C 703.652344 359.53125 707.179688 340.015625 713.898438 321.296875 C 715.980469 315.503906 718.761719 309.847656 721.988281 304.601562 C 728.894531 293.375 743.675781 287.730469 755.757812 291.140625 C 767.296875 294.394531 775.566406 305.15625 775.539062 318.425781 Z M 1458.085938 317.445312 C 1457.113281 307.117188 1447.933594 298.792969 1436.730469 297.488281 C 1427.351562 296.390625 1419.90625 299.296875 1414.359375 307.253906 C 1410.625 312.613281 1409.515625 318.585938 1408.84375 324.777344 C 1407.871094 333.679688 1407.675781 342.726562 1405.933594 351.46875 C 1403.242188 364.960938 1399.605469 378.269531 1396.191406 391.609375 C 1394.328125 398.898438 1390.425781 405.273438 1386.03125 411.257812 C 1380.339844 419.011719 1372.414062 421.707031 1363.179688 419.488281 C 1354.550781 417.417969 1350.390625 410.96875 1349.40625 402.636719 C 1348.683594 396.511719 1348.285156 390.234375 1348.753906 384.101562 C 1349.867188 369.503906 1351.664062 354.960938 1353.023438 340.382812 C 1353.6875 333.242188 1352.503906 326.277344 1349.777344 319.640625 C 1348.164062 315.71875 1345.558594 312.535156 1341.722656 310.523438 C 1331.558594 305.1875 1319.960938 307.28125 1312.753906 316.144531 C 1310.179688 319.3125 1307.914062 322.949219 1306.433594 326.730469 C 1304.5 331.667969 1303.109375 336.894531 1302.136719 342.113281 C 1297.59375 366.457031 1298.058594 390.945312 1302.355469 415.15625 C 1306.304688 437.421875 1317.769531 455.25 1338.433594 465.992188 C 1350.566406 472.300781 1363.039062 472.988281 1375.839844 467.554688 C 1384.410156 463.917969 1390.601562 457.5625 1396.605469 450.855469 C 1397.554688 449.792969 1398.621094 448.84375 1400.464844 447.019531 C 1399.933594 457.160156 1399.464844 466.027344 1398.957031 475.730469 C 1396.554688 475.730469 1394.835938 475.582031 1393.152344 475.757812 C 1387.332031 476.367188 1381.433594 476.660156 1375.722656 477.855469 C 1353.320312 482.542969 1335.589844 493.699219 1324.960938 514.792969 C 1317.246094 530.109375 1317.734375 545.417969 1324.371094 560.699219 C 1333.265625 581.1875 1358.945312 593.820312 1378.230469 592.746094 C 1400.53125 591.503906 1416.269531 581.054688 1425.933594 561.09375 C 1430.789062 551.070312 1433.742188 540.46875 1435.359375 529.511719 C 1437.320312 516.222656 1438.597656 502.816406 1440.867188 489.582031 C 1443.5 474.242188 1444.042969 458.746094 1445.480469 443.316406 C 1447.316406 423.597656 1448.847656 403.84375 1451.011719 384.164062 C 1452.964844 366.359375 1455.683594 348.640625 1457.847656 330.859375 C 1458.378906 326.441406 1458.503906 321.878906 1458.085938 317.445312 Z M 1394.085938 521.878906 C 1391.835938 528.351562 1389.171875 534.71875 1386.167969 540.882812 C 1384.949219 543.386719 1382.65625 545.570312 1380.414062 547.34375 C 1374.777344 551.796875 1367.882812 551.746094 1362.234375 547.613281 C 1357.878906 544.429688 1355.988281 537.203125 1358.351562 531.109375 C 1362.375 520.738281 1369.972656 514.222656 1380.808594 511.699219 C 1385.453125 510.621094 1390.195312 509.570312 1395.664062 511.332031 C 1395.171875 514.898438 1395.222656 518.59375 1394.085938 521.878906 Z M 1230.363281 312.792969 C 1214.589844 312.371094 1200.71875 316.644531 1190.160156 329.105469 C 1189.773438 329.5625 1189.089844 329.765625 1188.617188 330.042969 C 1187.425781 326.199219 1186.617188 322.476562 1185.132812 319.039062 C 1181.714844 311.101562 1172.796875 305.691406 1164.375 306.207031 C 1154.328125 306.820312 1145.972656 312.085938 1143.574219 321.113281 C 1142.472656 325.269531 1141.160156 329.394531 1140.441406 333.621094 C 1139.109375 341.429688 1138.265625 349.320312 1137.007812 357.144531 C 1131.992188 388.449219 1126.773438 419.71875 1121.863281 451.035156 C 1118.636719 471.628906 1115.566406 492.253906 1112.921875 512.929688 C 1111.789062 521.785156 1111.226562 530.832031 1111.601562 539.742188 C 1112.226562 554.695312 1127.160156 565.410156 1140.65625 561.011719 C 1149.34375 558.179688 1155.355469 552.074219 1158.71875 543.644531 C 1160.496094 539.183594 1162.039062 534.527344 1162.898438 529.816406 C 1166.21875 511.6875 1169.242188 493.503906 1172.324219 475.328125 C 1173.207031 470.132812 1173.910156 464.90625 1174.671875 459.851562 C 1175.339844 459.746094 1175.574219 459.636719 1175.664062 459.707031 C 1176.332031 460.226562 1177.03125 460.722656 1177.609375 461.335938 C 1183.019531 467.101562 1189.390625 471.496094 1196.898438 473.945312 C 1210.839844 478.503906 1224.660156 478.597656 1238.132812 472.019531 C 1250.199219 466.128906 1259.007812 456.597656 1265.804688 445.488281 C 1282.757812 417.789062 1287.800781 387.746094 1280.820312 356.023438 C 1274.722656 328.28125 1253.890625 313.421875 1230.363281 312.792969 Z M 1217.855469 417.472656 C 1214.433594 420.828125 1210.433594 422.992188 1205.777344 424.09375 C 1198.085938 425.910156 1191.230469 423.289062 1187.101562 416.484375 C 1182.492188 408.894531 1180.0625 400.894531 1182.410156 391.828125 C 1184.835938 382.476562 1186.949219 373.089844 1192.582031 364.9375 C 1197.207031 358.246094 1207.925781 353.492188 1215.757812 355.394531 C 1221.421875 356.773438 1225.472656 360.441406 1227.699219 365.933594 C 1229.996094 371.613281 1230.890625 377.539062 1230.8125 383.652344 C 1230.523438 396.464844 1227.355469 408.164062 1217.855469 417.472656 Z M 1217.855469 417.472656 " fill-opacity="1" fill-rule="nonzero"/><path fill="#f73987" d="M 530.207031 768.925781 C 526.152344 763.632812 521.308594 758.949219 516.3125 753.4375 C 517.234375 752.449219 518.386719 751.214844 519.542969 749.988281 C 525.644531 743.507812 530.539062 736.253906 533.476562 727.8125 C 543.371094 699.34375 535.925781 668.347656 512.222656 647.289062 C 493.984375 631.09375 472.671875 621.984375 448.027344 620.652344 C 422.273438 619.265625 397.417969 622.851562 373.632812 632.816406 C 366.675781 635.730469 360.234375 639.851562 353.425781 643.144531 C 347.324219 646.09375 346.175781 651.136719 347.234375 656.996094 C 347.804688 660.160156 348.960938 663.304688 350.347656 666.226562 C 354.203125 674.375 360.453125 680.511719 367.542969 685.898438 C 372.164062 689.410156 377 691.589844 382.90625 689.488281 C 383.285156 689.351562 383.816406 689.648438 384.445312 689.78125 C 384.445312 691.59375 384.597656 693.308594 384.421875 694.988281 C 382.292969 715.382812 380.597656 735.839844 377.84375 756.148438 C 374.09375 783.808594 369.4375 811.339844 365.367188 838.957031 C 364.164062 847.125 363.222656 855.378906 362.917969 863.625 C 362.644531 871.179688 365.996094 877.234375 372.785156 881.179688 C 378.824219 884.6875 385.28125 887.035156 392.089844 888.320312 C 399.277344 889.675781 406.171875 888.636719 412.589844 884.949219 C 414.050781 884.113281 415.566406 883.371094 416.355469 882.957031 C 422.375 885.664062 427.585938 888.375 433.054688 890.386719 C 443.058594 894.066406 453.535156 894.863281 464.136719 894.707031 C 483.691406 894.417969 500.722656 887.660156 514.480469 873.914062 C 535.949219 852.464844 545.703125 826.8125 540.394531 796.273438 C 538.707031 786.511719 536.328125 776.925781 530.207031 768.925781 Z M 475.484375 820.390625 C 465.21875 831.503906 447.902344 833.980469 435.160156 826.355469 C 432.527344 824.78125 431.136719 823.042969 431.632812 819.710938 C 433.644531 806.242188 435.441406 792.746094 437.300781 779.257812 C 437.589844 777.171875 438.597656 775.679688 440.660156 775.128906 C 445.105469 773.933594 449.574219 772.820312 454.03125 771.671875 C 469.574219 772.605469 481.445312 782.511719 483.382812 797.167969 C 484.554688 806.074219 481.535156 813.839844 475.484375 820.390625 Z M 462.714844 730.957031 C 456.398438 732.304688 450.097656 731.8125 443.308594 730.828125 C 444.789062 712.035156 446.257812 693.429688 447.753906 674.496094 C 466.804688 672.074219 484.472656 686.203125 484.449219 704.820312 C 484.429688 718.640625 477.785156 727.746094 462.714844 730.957031 Z M 1530.210938 826.878906 C 1529.015625 821.503906 1527.894531 816.074219 1526.195312 810.847656 C 1513.328125 771.335938 1502.851562 731.15625 1492.277344 691 C 1488.019531 674.839844 1483.273438 658.8125 1478.746094 642.722656 C 1477.328125 637.679688 1474.5 633.671875 1469.847656 631.15625 C 1460.429688 626.0625 1450.453125 622.878906 1439.636719 623.84375 C 1434.164062 624.332031 1428.6875 625.378906 1423.375 626.785156 C 1416.679688 628.554688 1410.976562 632.09375 1407.765625 638.585938 C 1405.933594 642.285156 1404.152344 646.042969 1402.773438 649.925781 C 1395.226562 671.191406 1387.84375 692.515625 1380.34375 713.800781 C 1369.125 745.652344 1357.78125 777.460938 1346.667969 809.351562 C 1344.0625 816.816406 1341.582031 824.40625 1340.042969 832.140625 C 1337.609375 844.375 1343.335938 853.632812 1355.238281 857.21875 C 1360.800781 858.894531 1366.644531 859.9375 1372.433594 860.480469 C 1376.824219 860.894531 1381.511719 860.761719 1385.746094 859.65625 C 1396.894531 856.734375 1403.644531 849.300781 1406.222656 837.964844 C 1408.433594 828.222656 1410.921875 818.542969 1413.367188 808.855469 C 1414.609375 803.921875 1414.691406 803.933594 1419.492188 803.816406 C 1431.394531 803.519531 1443.300781 803.3125 1455.199219 802.886719 C 1457.859375 802.792969 1458.855469 803.914062 1459.480469 806.226562 C 1461.019531 811.878906 1462.621094 817.519531 1464.375 823.109375 C 1470.332031 842.097656 1485.4375 853.261719 1505.316406 853.570312 C 1507.722656 853.394531 1510.175781 853.453125 1512.53125 853 C 1520.011719 851.570312 1526.316406 848.339844 1529.066406 840.632812 C 1530.652344 836.195312 1531.246094 831.542969 1530.210938 826.878906 Z M 1430.894531 754.691406 C 1430.546875 750.308594 1436.714844 728.4375 1441.089844 721.289062 C 1443.386719 732.308594 1445.675781 743.328125 1448.039062 754.691406 C 1442.019531 754.691406 1436.4375 754.691406 1430.894531 754.691406 Z M 988.828125 638.894531 C 988.832031 646.429688 987.6875 654.007812 986.527344 661.480469 C 985.707031 666.734375 984.230469 671.925781 982.644531 677.015625 C 978.773438 689.425781 972.65625 694.058594 959.707031 694.773438 C 950.75 695.269531 941.792969 695.710938 932.835938 696.210938 C 931.671875 696.277344 930.515625 696.558594 928.996094 696.796875 C 927.953125 703.882812 926.804688 710.832031 925.929688 717.816406 C 922.695312 743.640625 919.75 769.496094 916.308594 795.292969 C 914.125 811.6875 911.257812 827.992188 908.691406 844.332031 C 907.941406 849.097656 907.207031 853.863281 906.386719 858.617188 C 902.652344 880.199219 881.390625 886.9375 864.175781 880.769531 C 854.488281 877.300781 845.355469 866.378906 845.710938 856.8125 C 845.890625 851.992188 846.234375 847.167969 846.730469 842.367188 C 848.589844 824.367188 850.324219 806.347656 852.527344 788.386719 C 854.496094 772.308594 857.136719 756.320312 859.257812 740.261719 C 860.972656 727.277344 862.367188 714.253906 863.871094 701.242188 C 864.003906 700.082031 863.890625 698.894531 863.890625 697.058594 C 860.886719 697.058594 858.183594 697.042969 855.476562 697.058594 C 847.542969 697.105469 839.609375 697.269531 831.675781 697.183594 C 824.707031 697.109375 821.304688 694.863281 819.695312 688.085938 C 817.476562 678.71875 815.863281 669.195312 814.285156 659.691406 C 813.554688 655.289062 813.246094 650.777344 813.21875 646.308594 C 813.183594 639.269531 815.441406 636.203125 822.203125 634.257812 C 825.988281 633.167969 829.957031 632.609375 833.882812 632.152344 C 852.035156 630.035156 870.191406 627.933594 888.367188 626.046875 C 895.222656 625.335938 902.136719 625 909.039062 624.871094 C 929.914062 624.46875 950.792969 624.253906 971.671875 623.964844 C 972.359375 623.957031 973.054688 623.964844 973.742188 623.984375 C 984.011719 624.3125 988.824219 628.558594 988.828125 638.894531 Z M 988.828125 638.894531 " fill-opacity="1" fill-rule="nonzero"/><path fill="#ff97bf" d="M 1138.835938 651.929688 C 1136.585938 668.953125 1140.453125 684.140625 1152.320312 696.796875 C 1155.066406 699.722656 1156.132812 702.488281 1155.707031 706.433594 C 1153.632812 725.796875 1151.699219 745.179688 1149.882812 764.570312 C 1149.179688 772.121094 1149.167969 779.738281 1148.398438 787.28125 C 1146.824219 802.703125 1145.457031 818.175781 1143.066406 833.480469 C 1140.085938 852.574219 1121.417969 863.714844 1102.726562 858.339844 C 1089.761719 854.613281 1081.710938 844.09375 1081.386719 830.558594 C 1081.121094 819.441406 1083.5625 808.636719 1085.050781 797.71875 C 1086.121094 789.890625 1087.167969 782.0625 1088.332031 773.441406 C 1073.851562 774.503906 1060.046875 775.214844 1046.191406 777.304688 C 1045.421875 784.980469 1044.839844 792.183594 1043.953125 799.347656 C 1042.316406 812.511719 1040.679688 825.679688 1038.703125 838.796875 C 1037.40625 847.40625 1033.492188 854.597656 1026.511719 860.296875 C 1014.664062 869.964844 997.335938 867.3125 987.679688 856.863281 C 982.476562 851.234375 981.140625 844.316406 981.351562 837.183594 C 981.714844 824.789062 982.515625 812.398438 983.46875 800.03125 C 984.488281 786.804688 985.855469 773.597656 987.136719 760.390625 C 990.1875 729 993.195312 697.605469 996.417969 666.234375 C 997.152344 659.058594 998.273438 651.867188 999.925781 644.847656 C 1001.53125 638.027344 1004.910156 631.910156 1010.949219 627.871094 C 1013.328125 626.28125 1016.085938 624.816406 1018.851562 624.316406 C 1029.960938 622.300781 1040.515625 623.0625 1049.1875 631.632812 C 1053.449219 635.839844 1055.480469 640.96875 1056.394531 646.734375 C 1057.875 656.054688 1056.640625 665.347656 1055.964844 674.601562 C 1054.960938 688.351562 1053.402344 702.058594 1052.070312 715.785156 C 1051.722656 719.34375 1051.347656 722.902344 1050.894531 727.375 C 1055.574219 726.839844 1059.308594 726.402344 1063.039062 725.988281 C 1071.949219 724.992188 1080.851562 723.917969 1089.773438 723.066406 C 1092.484375 722.804688 1093.730469 721.792969 1093.992188 719.011719 C 1095.289062 705.292969 1096.644531 691.578125 1098.140625 677.878906 C 1099.351562 666.746094 1100.335938 655.5625 1102.230469 644.539062 C 1105.304688 626.625 1120.675781 615.8125 1138.839844 618.097656 C 1148.601562 619.328125 1153.90625 622.136719 1159.984375 629.570312 C 1158.394531 630.96875 1156.867188 632.511719 1155.140625 633.785156 C 1152.230469 635.933594 1149.109375 637.804688 1146.226562 639.992188 C 1142.265625 642.992188 1139.527344 646.722656 1138.835938 651.929688 Z M 1683.539062 610.027344 C 1676.691406 608.359375 1669.902344 608.773438 1663.007812 609.148438 C 1652.238281 609.738281 1643.734375 614.332031 1637.835938 623.214844 C 1634.035156 628.941406 1630.589844 634.96875 1627.613281 641.160156 C 1621.496094 653.894531 1615.8125 666.835938 1609.929688 679.683594 C 1609.238281 681.195312 1608.429688 682.652344 1607.269531 684.929688 C 1606.371094 683.34375 1605.992188 682.777344 1605.707031 682.164062 C 1599.972656 669.816406 1594.394531 657.398438 1588.46875 645.148438 C 1585.855469 639.742188 1582.859375 634.460938 1579.480469 629.496094 C 1575.808594 624.105469 1570.695312 619.878906 1564.199219 618.6875 C 1557.472656 617.457031 1550.519531 616.824219 1543.691406 616.976562 C 1538.992188 617.082031 1534.113281 618.429688 1529.695312 620.179688 C 1519.878906 624.070312 1516.65625 630.867188 1520.039062 640.816406 C 1522.414062 647.800781 1525.484375 654.589844 1528.757812 661.21875 C 1534.25 672.335938 1540.34375 683.164062 1545.847656 694.277344 C 1555.703125 714.195312 1565.273438 734.253906 1575.085938 754.199219 C 1576.03125 756.117188 1576.128906 757.625 1575.292969 759.511719 C 1571.394531 768.335938 1567.617188 777.214844 1563.738281 786.050781 C 1558.195312 798.667969 1552.585938 811.253906 1547.039062 823.867188 C 1544.484375 829.683594 1543.734375 835.800781 1544.382812 842.082031 C 1544.835938 846.449219 1546.117188 850.574219 1549.152344 853.863281 C 1564.089844 870.039062 1592.992188 872.027344 1606.800781 849.25 C 1607.695312 847.777344 1608.476562 846.238281 1609.351562 844.753906 C 1620.660156 825.519531 1629 804.90625 1637.492188 784.355469 C 1648.082031 758.71875 1658.714844 733.097656 1669.578125 707.578125 C 1677.402344 689.195312 1685.789062 671.054688 1693.59375 652.664062 C 1696 646.992188 1697.695312 640.945312 1699.042969 634.921875 C 1701.203125 625.308594 1696.503906 613.191406 1683.539062 610.027344 Z M 631.90625 704.605469 C 629.488281 703.394531 627.335938 701.539062 625.289062 699.722656 C 617.46875 692.757812 611.316406 684.492188 606.574219 675.167969 C 605.949219 673.9375 605.203125 672.769531 604.597656 671.53125 C 603.632812 669.5625 602.054688 668.796875 599.949219 669.078125 C 598.417969 669.28125 596.847656 669.421875 595.382812 669.871094 C 580.921875 674.289062 571.496094 683.65625 568.953125 698.695312 C 566.457031 713.457031 564.769531 728.359375 562.835938 743.21875 C 558.699219 774.988281 554.601562 806.765625 550.558594 838.550781 C 549.105469 849.996094 547.847656 861.472656 546.503906 872.933594 C 546.582031 879.410156 546.761719 885.761719 550.183594 891.535156 C 554.78125 899.296875 561.351562 904.761719 570.039062 907.09375 C 582.976562 910.566406 594.527344 907.960938 604.3125 898.339844 C 611.539062 891.230469 613.925781 882.28125 615.136719 872.6875 C 616.609375 861.066406 618.214844 849.457031 619.863281 837.859375 C 622.796875 817.214844 625.917969 796.597656 628.753906 775.9375 C 630.554688 762.796875 631.949219 749.597656 633.582031 736.425781 C 634.5 729.070312 635.429688 721.722656 636.546875 714.394531 C 637.222656 709.972656 636.195312 706.746094 631.90625 704.605469 Z M 631.90625 704.605469 " fill-opacity="1" fill-rule="nonzero"/></svg>