<svg xmlns="http://www.w3.org/2000/svg" xmlns:xlink="http://www.w3.org/1999/xlink" width="2730" zoomAndPan="magnify" viewBox="0 0 2047.5 1151.999944" height="1536" preserveAspectRatio="xMidYMid meet" version="1.0"><defs><clipPath id="bcd31faebd"><path d="M 1193 140.933594 L 1474.851562 140.933594 L 1474.851562 459 L 1193 459 Z M 1193 140.933594 " clip-rule="nonzero"/></clipPath><clipPath id="3dcd17beab"><path d="M 793 189 L 1289 189 L 1289 1010.722656 L 793 1010.722656 Z M 793 189 " clip-rule="nonzero"/></clipPath><clipPath id="5e79d03d83"><path d="M 572.070312 147 L 972 147 L 972 479 L 572.070312 479 Z M 572.070312 147 " clip-rule="nonzero"/></clipPath></defs><path fill="#cee3b6" d="M 1312.058594 444.972656 C 1305.0625 458.046875 1298.070312 471.121094 1291.074219 484.195312 C 1300.125 492.5625 1313.210938 496.347656 1325.332031 494.097656 L 1324.359375 445.414062 Z M 1312.058594 444.972656 " fill-opacity="1" fill-rule="nonzero"/><path fill="#682b40" d="M 1318.382812 498.5 C 1307.46875 498.5 1296.523438 494.367188 1288.511719 486.964844 C 1287.253906 485.796875 1286.9375 483.929688 1287.75 482.417969 L 1308.730469 443.195312 C 1309.410156 441.925781 1310.800781 441.136719 1312.191406 441.203125 L 1324.496094 441.644531 C 1326.496094 441.71875 1328.089844 443.339844 1328.128906 445.339844 L 1329.101562 494.023438 C 1329.140625 495.867188 1327.835938 497.46875 1326.019531 497.808594 C 1323.5 498.273438 1320.941406 498.5 1318.382812 498.5 Z M 1295.832031 483.292969 C 1303.019531 488.890625 1312.421875 491.648438 1321.496094 490.824219 L 1320.660156 449.054688 L 1314.273438 448.828125 Z M 1295.832031 483.292969 " fill-opacity="1" fill-rule="nonzero"/><path fill="#cee3b6" d="M 1197.523438 282.75 C 1190.464844 362.582031 1248.546875 446.175781 1317.453125 454.539062 C 1353.675781 458.933594 1382.375 441.261719 1391.171875 435.671875 C 1463.582031 389.671875 1502.292969 260.082031 1439.140625 189.457031 C 1406.464844 152.914062 1347.867188 133.660156 1294.175781 151.148438 C 1230.429688 171.917969 1201.714844 235.324219 1197.523438 282.75 Z M 1197.523438 282.75 " fill-opacity="1" fill-rule="nonzero"/><g clip-path="url(#bcd31faebd)"><path fill="#682b40" d="M 1328.785156 458.984375 C 1324.480469 458.984375 1320.539062 458.707031 1317 458.28125 C 1246.417969 449.71875 1186.53125 364.25 1193.765625 282.417969 C 1198.414062 229.875 1230.902344 167.796875 1293.007812 147.566406 C 1344.867188 130.675781 1406.117188 146.867188 1441.953125 186.945312 C 1468.378906 216.496094 1479.375 258.433594 1472.921875 305.027344 C 1465.242188 360.433594 1433.949219 412.964844 1393.191406 438.855469 C 1368.214844 454.722656 1345.730469 458.984375 1328.785156 458.984375 Z M 1201.277344 283.078125 C 1194.375 361.175781 1251.054688 442.683594 1317.90625 450.792969 C 1334.164062 452.769531 1359.710938 451.191406 1389.148438 432.488281 C 1428.113281 407.738281 1458.0625 357.296875 1465.449219 303.992188 C 1471.597656 259.628906 1461.253906 219.84375 1436.328125 191.96875 C 1402.421875 154.046875 1344.449219 138.742188 1295.34375 154.734375 C 1236.511719 173.902344 1205.707031 233.007812 1201.277344 283.078125 Z M 1201.277344 283.078125 " fill-opacity="1" fill-rule="nonzero"/></g><path fill="#ffffff" d="M 1172.003906 667.238281 C 1198.324219 735.785156 1211.507812 809.34375 1210.640625 882.765625 C 1210.21875 918.171875 1207.535156 929.449219 1202.09375 939.378906 C 1155.683594 1024.078125 936 1024.539062 889.175781 939.914062 C 883.726562 930.070312 880.417969 918.707031 880.417969 882.765625 C 880.417969 833.882812 886.53125 758.980469 919.054688 667.238281 Z M 1172.003906 667.238281 " fill-opacity="1" fill-rule="nonzero"/><path fill="#ffffff" d="M 926.792969 734.699219 C 877.523438 729.105469 849.265625 721.046875 831.898438 713.617188 C 827.964844 711.933594 816.640625 706.648438 808.015625 711.507812 C 800.679688 715.636719 798.800781 725.117188 798.15625 728.371094 C 792.910156 754.863281 817.800781 788.953125 842.441406 808.484375 C 869.886719 830.234375 899.9375 836.234375 918.359375 837.996094 Z M 926.792969 734.699219 " fill-opacity="1" fill-rule="nonzero"/><path fill="#ffffff" d="M 1159.332031 720.285156 C 1203.992188 698.746094 1228.003906 681.8125 1241.945312 669.066406 C 1245.101562 666.179688 1254.046875 657.453125 1263.792969 659.191406 C 1272.082031 660.671875 1276.984375 668.996094 1278.667969 671.859375 C 1292.367188 695.132812 1280.132812 735.527344 1263.320312 762.09375 C 1244.597656 791.683594 1218.214844 807.261719 1201.40625 815.007812 Z M 1159.332031 720.285156 " fill-opacity="1" fill-rule="nonzero"/><path fill="#ffffff" d="M 1001.316406 943.96875 C 1000.320312 935.882812 997.410156 928.730469 993.683594 922.597656 C 982.417969 904.050781 961.285156 893.792969 939.636719 895.339844 C 937.0625 895.523438 934.535156 895.800781 932.046875 896.15625 C 906.40625 875.328125 864.894531 874.710938 843.242188 897.347656 C 827.667969 913.628906 828.40625 935.628906 828.886719 941.839844 C 831.027344 969.5 852.398438 998.003906 882.355469 1004.347656 C 882.402344 1004.410156 882.460938 1004.484375 882.507812 1004.539062 C 894.746094 1006.355469 909.746094 1007.542969 926.792969 1006.648438 C 949.941406 1005.433594 969.308594 1000.777344 983.730469 996.109375 C 987.796875 991.980469 994.011719 984.554688 998.027344 973.601562 C 1003.339844 959.128906 1001.675781 946.871094 1001.316406 943.96875 Z M 1001.316406 943.96875 " fill-opacity="1" fill-rule="nonzero"/><path fill="#f59eae" d="M 918.359375 943.40625 C 918.359375 944.371094 918.3125 945.335938 918.214844 946.296875 C 918.121094 947.257812 917.980469 948.214844 917.792969 949.164062 C 917.601562 950.109375 917.367188 951.046875 917.085938 951.972656 C 916.804688 952.898438 916.480469 953.804688 916.109375 954.699219 C 915.742188 955.59375 915.328125 956.464844 914.871094 957.316406 C 914.417969 958.167969 913.921875 958.996094 913.382812 959.800781 C 912.847656 960.605469 912.269531 961.378906 911.65625 962.128906 C 911.042969 962.875 910.394531 963.589844 909.710938 964.273438 C 909.027344 964.957031 908.3125 965.605469 907.566406 966.21875 C 906.816406 966.832031 906.042969 967.40625 905.238281 967.945312 C 904.433594 968.480469 903.605469 968.976562 902.753906 969.433594 C 901.898438 969.890625 901.027344 970.300781 900.132812 970.671875 C 899.238281 971.042969 898.332031 971.367188 897.40625 971.648438 C 896.480469 971.929688 895.542969 972.164062 894.59375 972.351562 C 893.648438 972.539062 892.691406 972.679688 891.730469 972.777344 C 890.765625 972.871094 889.800781 972.917969 888.835938 972.917969 C 887.867188 972.917969 886.902344 972.871094 885.941406 972.777344 C 884.980469 972.679688 884.023438 972.539062 883.074219 972.351562 C 882.128906 972.164062 881.191406 971.929688 880.265625 971.648438 C 879.339844 971.367188 878.429688 971.042969 877.535156 970.671875 C 876.644531 970.300781 875.769531 969.890625 874.917969 969.433594 C 874.066406 968.976562 873.238281 968.480469 872.433594 967.945312 C 871.628906 967.40625 870.851562 966.832031 870.105469 966.21875 C 869.359375 965.605469 868.644531 964.957031 867.960938 964.273438 C 867.273438 963.589844 866.625 962.875 866.011719 962.128906 C 865.398438 961.378906 864.824219 960.605469 864.289062 959.800781 C 863.75 958.996094 863.253906 958.167969 862.796875 957.316406 C 862.34375 956.464844 861.929688 955.59375 861.558594 954.699219 C 861.1875 953.804688 860.863281 952.898438 860.582031 951.972656 C 860.300781 951.046875 860.066406 950.109375 859.878906 949.164062 C 859.691406 948.214844 859.550781 947.257812 859.453125 946.296875 C 859.359375 945.335938 859.3125 944.371094 859.3125 943.40625 C 859.3125 942.4375 859.359375 941.472656 859.453125 940.511719 C 859.550781 939.550781 859.691406 938.59375 859.878906 937.644531 C 860.066406 936.699219 860.300781 935.761719 860.582031 934.835938 C 860.863281 933.910156 861.1875 933.003906 861.558594 932.109375 C 861.929688 931.214844 862.34375 930.34375 862.796875 929.492188 C 863.253906 928.640625 863.75 927.8125 864.289062 927.007812 C 864.824219 926.203125 865.398438 925.429688 866.011719 924.679688 C 866.625 923.933594 867.273438 923.21875 867.960938 922.535156 C 868.644531 921.851562 869.359375 921.203125 870.105469 920.589844 C 870.851562 919.976562 871.628906 919.402344 872.433594 918.863281 C 873.238281 918.328125 874.066406 917.832031 874.917969 917.375 C 875.769531 916.917969 876.644531 916.507812 877.535156 916.136719 C 878.429688 915.765625 879.339844 915.441406 880.265625 915.160156 C 881.191406 914.878906 882.128906 914.644531 883.074219 914.457031 C 884.023438 914.269531 884.980469 914.128906 885.941406 914.03125 C 886.902344 913.9375 887.867188 913.890625 888.835938 913.890625 C 889.800781 913.890625 890.765625 913.9375 891.730469 914.03125 C 892.691406 914.128906 893.648438 914.269531 894.59375 914.457031 C 895.542969 914.644531 896.480469 914.878906 897.40625 915.160156 C 898.332031 915.441406 899.238281 915.765625 900.132812 916.136719 C 901.027344 916.507812 901.898438 916.917969 902.753906 917.375 C 903.605469 917.832031 904.433594 918.328125 905.238281 918.863281 C 906.042969 919.402344 906.816406 919.976562 907.566406 920.589844 C 908.3125 921.203125 909.027344 921.851562 909.710938 922.535156 C 910.394531 923.21875 911.042969 923.933594 911.65625 924.679688 C 912.269531 925.429688 912.847656 926.203125 913.382812 927.007812 C 913.921875 927.8125 914.417969 928.640625 914.871094 929.492188 C 915.328125 930.34375 915.742188 931.214844 916.109375 932.109375 C 916.480469 933.003906 916.804688 933.910156 917.085938 934.835938 C 917.367188 935.761719 917.601562 936.699219 917.792969 937.644531 C 917.980469 938.59375 918.121094 939.550781 918.214844 940.511719 C 918.3125 941.472656 918.359375 942.4375 918.359375 943.40625 Z M 918.359375 943.40625 " fill-opacity="1" fill-rule="nonzero"/><path fill="#ffffff" d="M 1086.351562 943.96875 C 1087.347656 935.882812 1090.257812 928.730469 1093.984375 922.597656 C 1105.246094 904.050781 1126.382812 893.792969 1148.03125 895.339844 C 1150.601562 895.523438 1153.132812 895.800781 1155.621094 896.15625 C 1181.261719 875.328125 1222.773438 874.710938 1244.425781 897.347656 C 1260 913.628906 1259.261719 935.628906 1258.78125 941.839844 C 1256.640625 969.5 1235.269531 998.003906 1205.3125 1004.347656 C 1205.261719 1004.410156 1205.203125 1004.484375 1205.15625 1004.539062 C 1192.921875 1006.355469 1177.921875 1007.542969 1160.871094 1006.648438 C 1137.722656 1005.433594 1118.359375 1000.777344 1103.933594 996.109375 C 1099.871094 991.980469 1093.65625 984.554688 1089.636719 973.601562 C 1084.324219 959.128906 1085.992188 946.871094 1086.351562 943.96875 Z M 1086.351562 943.96875 " fill-opacity="1" fill-rule="nonzero"/><path fill="#f59eae" d="M 1228.355469 943.40625 C 1228.355469 944.371094 1228.308594 945.335938 1228.210938 946.296875 C 1228.117188 947.257812 1227.976562 948.214844 1227.785156 949.164062 C 1227.597656 950.109375 1227.363281 951.046875 1227.082031 951.972656 C 1226.800781 952.898438 1226.476562 953.804688 1226.105469 954.699219 C 1225.738281 955.59375 1225.324219 956.464844 1224.867188 957.316406 C 1224.414062 958.167969 1223.914062 958.996094 1223.378906 959.800781 C 1222.839844 960.605469 1222.265625 961.378906 1221.652344 962.128906 C 1221.039062 962.875 1220.390625 963.589844 1219.707031 964.273438 C 1219.023438 964.957031 1218.308594 965.605469 1217.558594 966.21875 C 1216.8125 966.832031 1216.035156 967.40625 1215.234375 967.945312 C 1214.429688 968.480469 1213.601562 968.976562 1212.746094 969.433594 C 1211.894531 969.890625 1211.023438 970.300781 1210.128906 970.671875 C 1209.234375 971.042969 1208.328125 971.367188 1207.402344 971.648438 C 1206.476562 971.929688 1205.539062 972.164062 1204.589844 972.351562 C 1203.640625 972.539062 1202.6875 972.679688 1201.726562 972.777344 C 1200.761719 972.871094 1199.796875 972.917969 1198.832031 972.917969 C 1197.863281 972.917969 1196.898438 972.871094 1195.9375 972.777344 C 1194.976562 972.679688 1194.019531 972.539062 1193.070312 972.351562 C 1192.121094 972.164062 1191.1875 971.929688 1190.261719 971.648438 C 1189.335938 971.367188 1188.425781 971.042969 1187.53125 970.671875 C 1186.640625 970.300781 1185.765625 969.890625 1184.914062 969.433594 C 1184.0625 968.976562 1183.234375 968.480469 1182.429688 967.945312 C 1181.625 967.40625 1180.847656 966.832031 1180.101562 966.21875 C 1179.355469 965.605469 1178.636719 964.957031 1177.953125 964.273438 C 1177.269531 963.589844 1176.621094 962.875 1176.007812 962.128906 C 1175.394531 961.378906 1174.820312 960.605469 1174.28125 959.800781 C 1173.746094 958.996094 1173.25 958.167969 1172.792969 957.316406 C 1172.335938 956.464844 1171.925781 955.59375 1171.554688 954.699219 C 1171.183594 953.804688 1170.859375 952.898438 1170.578125 951.972656 C 1170.296875 951.046875 1170.0625 950.109375 1169.875 949.164062 C 1169.6875 948.214844 1169.542969 947.257812 1169.449219 946.296875 C 1169.355469 945.335938 1169.308594 944.371094 1169.308594 943.40625 C 1169.308594 942.4375 1169.355469 941.472656 1169.449219 940.511719 C 1169.542969 939.550781 1169.6875 938.59375 1169.875 937.644531 C 1170.0625 936.699219 1170.296875 935.761719 1170.578125 934.835938 C 1170.859375 933.910156 1171.183594 933.003906 1171.554688 932.109375 C 1171.925781 931.214844 1172.335938 930.34375 1172.792969 929.492188 C 1173.25 928.640625 1173.746094 927.8125 1174.28125 927.007812 C 1174.820312 926.203125 1175.394531 925.429688 1176.007812 924.679688 C 1176.621094 923.933594 1177.269531 923.21875 1177.953125 922.535156 C 1178.636719 921.851562 1179.355469 921.203125 1180.101562 920.589844 C 1180.847656 919.976562 1181.625 919.402344 1182.429688 918.863281 C 1183.234375 918.328125 1184.0625 917.832031 1184.914062 917.375 C 1185.765625 916.917969 1186.640625 916.507812 1187.53125 916.136719 C 1188.425781 915.765625 1189.335938 915.441406 1190.261719 915.160156 C 1191.1875 914.878906 1192.121094 914.644531 1193.070312 914.457031 C 1194.019531 914.269531 1194.976562 914.128906 1195.9375 914.03125 C 1196.898438 913.9375 1197.863281 913.890625 1198.832031 913.890625 C 1199.796875 913.890625 1200.761719 913.9375 1201.726562 914.03125 C 1202.6875 914.128906 1203.640625 914.269531 1204.589844 914.457031 C 1205.539062 914.644531 1206.476562 914.878906 1207.402344 915.160156 C 1208.328125 915.441406 1209.234375 915.765625 1210.128906 916.136719 C 1211.023438 916.507812 1211.894531 916.917969 1212.75 917.375 C 1213.601562 917.832031 1214.429688 918.328125 1215.234375 918.863281 C 1216.035156 919.402344 1216.8125 919.976562 1217.558594 920.589844 C 1218.308594 921.203125 1219.023438 921.851562 1219.707031 922.535156 C 1220.390625 923.21875 1221.039062 923.933594 1221.652344 924.679688 C 1222.265625 925.429688 1222.839844 926.203125 1223.378906 927.007812 C 1223.914062 927.8125 1224.414062 928.640625 1224.867188 929.492188 C 1225.324219 930.34375 1225.738281 931.214844 1226.105469 932.109375 C 1226.476562 933.003906 1226.800781 933.910156 1227.082031 934.835938 C 1227.363281 935.761719 1227.597656 936.699219 1227.785156 937.644531 C 1227.976562 938.59375 1228.117188 939.550781 1228.210938 940.511719 C 1228.308594 941.472656 1228.355469 942.4375 1228.355469 943.40625 Z M 1228.355469 943.40625 " fill-opacity="1" fill-rule="nonzero"/><path fill="#682b40" d="M 1138.617188 963.269531 C 1136.976562 963.269531 1135.46875 962.191406 1134.992188 960.539062 C 1134.558594 959.035156 1124.691406 923.394531 1150.769531 896.292969 C 1175.457031 870.640625 1209.914062 877.085938 1211.367188 877.375 C 1213.414062 877.78125 1214.742188 879.761719 1214.339844 881.804688 C 1213.933594 883.847656 1211.953125 885.183594 1209.910156 884.773438 C 1208.617188 884.523438 1178.066406 878.800781 1156.207031 901.523438 C 1133.113281 925.523438 1142.148438 958.128906 1142.242188 958.457031 C 1142.816406 960.457031 1141.660156 962.542969 1139.660156 963.121094 C 1139.3125 963.222656 1138.960938 963.269531 1138.617188 963.269531 Z M 1138.617188 963.269531 " fill-opacity="1" fill-rule="nonzero"/><path fill="#682b40" d="M 951.378906 963.269531 C 951.03125 963.269531 950.683594 963.222656 950.332031 963.121094 C 948.332031 962.542969 947.175781 960.457031 947.753906 958.457031 C 947.847656 958.128906 956.882812 925.523438 933.785156 901.523438 C 911.925781 878.800781 881.375 884.523438 880.085938 884.773438 C 878.039062 885.1875 876.058594 883.847656 875.65625 881.804688 C 875.25 879.761719 876.582031 877.78125 878.625 877.375 C 880.078125 877.085938 914.535156 870.640625 939.222656 896.292969 C 965.300781 923.394531 955.433594 959.035156 955 960.539062 C 954.523438 962.191406 953.015625 963.269531 951.378906 963.269531 Z M 951.378906 963.269531 " fill-opacity="1" fill-rule="nonzero"/><path fill="#ffffff" d="M 956.246094 284.371094 C 967.859375 327.066406 981.183594 388.402344 987.335938 466.65625 L 974.738281 471.265625 L 960.136719 476.621094 L 946.234375 481.71875 C 900.039062 418.132812 870.3125 362.808594 851.390625 322.792969 C 831.914062 281.566406 818.835938 245.871094 835.625 219.460938 C 838.917969 214.273438 842.917969 210.132812 847.003906 206.839844 C 852.105469 202.71875 857.957031 199.59375 864.128906 197.335938 L 864.964844 197.023438 C 871.136719 194.765625 877.625 193.359375 884.191406 193.214844 C 889.4375 193.089844 895.183594 193.644531 901.066406 195.472656 C 931.027344 204.757812 944.28125 240.390625 956.246094 284.371094 Z M 956.246094 284.371094 " fill-opacity="1" fill-rule="nonzero"/><path fill="#f59eae" d="M 974.738281 471.265625 L 960.136719 476.621094 C 931.125 434.296875 871.03125 306.257812 891.507812 283.386719 C 892.042969 282.792969 895.226562 279.351562 900.3125 280.007812 C 930.09375 283.785156 968.898438 420.363281 974.738281 471.265625 Z M 974.738281 471.265625 " fill-opacity="1" fill-rule="nonzero"/><path fill="#ffffff" d="M 1134.851562 284.371094 C 1123.238281 327.066406 1109.914062 388.402344 1103.761719 466.65625 L 1116.359375 471.265625 L 1130.957031 476.621094 L 1144.863281 481.71875 C 1191.058594 418.132812 1220.785156 362.808594 1239.707031 322.792969 C 1259.183594 281.566406 1272.261719 245.871094 1255.46875 219.460938 C 1252.179688 214.273438 1248.179688 210.132812 1244.09375 206.839844 C 1238.992188 202.71875 1233.140625 199.59375 1226.96875 197.335938 L 1226.132812 197.023438 C 1219.960938 194.765625 1213.46875 193.359375 1206.90625 193.214844 C 1201.660156 193.089844 1195.914062 193.644531 1190.03125 195.472656 C 1160.070312 204.757812 1146.816406 240.390625 1134.851562 284.371094 Z M 1134.851562 284.371094 " fill-opacity="1" fill-rule="nonzero"/><path fill="#f59eae" d="M 1116.359375 471.265625 L 1130.957031 476.621094 C 1159.972656 434.296875 1220.0625 306.257812 1199.585938 283.386719 C 1199.054688 282.792969 1195.867188 279.351562 1190.78125 280.007812 C 1161.003906 283.785156 1122.199219 420.363281 1116.359375 471.265625 Z M 1116.359375 471.265625 " fill-opacity="1" fill-rule="nonzero"/><path fill="#ffffff" d="M 1211.683594 709.898438 C 1272.164062 638.839844 1245.492188 490.40625 1144.199219 431.640625 C 1084.886719 397.230469 1006.269531 397.210938 946.925781 431.640625 C 845.769531 490.324219 818.820312 638.511719 879.441406 709.898438 C 923.707031 762.027344 1004.617188 761.390625 1048.148438 761.050781 C 1092.066406 760.707031 1168.953125 760.105469 1211.683594 709.898438 Z M 1211.683594 709.898438 " fill-opacity="1" fill-rule="nonzero"/><g clip-path="url(#3dcd17beab)"><path fill="#682b40" d="M 915.21875 1010.722656 C 904.09375 1010.722656 892.949219 1009.902344 881.957031 1008.269531 C 881.507812 1008.203125 881.078125 1008.054688 880.6875 1007.839844 C 851.332031 1001.167969 827.523438 973.089844 825.125 942.128906 C 824.453125 933.421875 824.605469 911.378906 840.515625 894.742188 C 849.503906 885.34375 862.246094 879.230469 876.675781 877.324219 C 876.8125 862.640625 877.507812 847.742188 878.753906 832.949219 C 864.5625 827.757812 851.570312 820.527344 840.097656 811.4375 C 814.191406 790.902344 788.855469 755.917969 794.457031 727.640625 C 795.164062 724.070312 797.316406 713.207031 806.164062 708.222656 C 816.046875 702.660156 828.25 707.929688 832.84375 709.917969 L 833.382812 710.148438 C 847.738281 716.292969 866.691406 721.480469 889.832031 725.601562 C 884.992188 721.472656 880.554688 717.035156 876.566406 712.339844 C 851.957031 683.359375 840.261719 639.933594 844.480469 593.199219 C 849.585938 536.625 876.957031 482.472656 917.910156 447.597656 C 891.113281 407.316406 867.59375 365.882812 847.980469 324.402344 C 829.960938 286.261719 813.917969 246.582031 832.441406 217.4375 C 835.636719 212.40625 839.738281 207.851562 844.632812 203.90625 C 849.820312 199.71875 855.945312 196.316406 862.832031 193.796875 L 863.644531 193.492188 C 870.597656 190.949219 877.472656 189.589844 884.109375 189.445312 C 890.457031 189.28125 896.53125 190.117188 902.1875 191.875 C 935.246094 202.117188 948.816406 242.699219 959.886719 283.382812 C 970.945312 324.046875 979.480469 366.941406 985.269531 410.941406 C 1024.316406 399.035156 1066.773438 399.035156 1105.828125 410.933594 C 1111.617188 366.9375 1120.152344 324.042969 1131.210938 283.382812 C 1142.28125 242.699219 1155.851562 202.117188 1188.914062 191.875 C 1194.566406 190.117188 1200.652344 189.285156 1206.996094 189.445312 C 1213.625 189.589844 1220.5 190.949219 1227.429688 193.484375 L 1228.285156 193.804688 C 1235.152344 196.316406 1241.277344 199.71875 1246.464844 203.90625 C 1251.359375 207.855469 1255.464844 212.40625 1258.65625 217.4375 C 1277.179688 246.582031 1261.136719 286.257812 1243.117188 324.402344 C 1223.503906 365.882812 1199.988281 407.308594 1173.195312 447.582031 C 1205.355469 474.949219 1229.167969 513.90625 1240.425781 557.667969 C 1250.070312 595.171875 1249.609375 633.921875 1239.414062 666.269531 L 1239.828125 665.886719 C 1243.507812 662.492188 1253.277344 653.480469 1264.457031 655.480469 C 1274.449219 657.261719 1280.070312 666.808594 1281.914062 669.941406 C 1296.542969 694.792969 1284.183594 736.175781 1266.507812 764.109375 C 1253.238281 785.078125 1234.628906 801.980469 1211.171875 814.375 C 1213.402344 835.445312 1214.496094 856.773438 1214.429688 877.851562 C 1227.546875 880.21875 1238.808594 886.019531 1247.152344 894.742188 C 1263.0625 911.378906 1263.214844 933.421875 1262.539062 942.128906 C 1260.144531 973.089844 1236.332031 1001.167969 1206.980469 1007.839844 C 1206.589844 1008.054688 1206.160156 1008.203125 1205.710938 1008.269531 C 1190.832031 1010.480469 1175.675781 1011.199219 1160.675781 1010.414062 C 1142.3125 1009.449219 1124.035156 1006.214844 1106.324219 1000.792969 C 1066.792969 1009.046875 1021.796875 1008.910156 982.523438 1000.433594 C 964.453125 1006.070312 945.773438 1009.429688 926.992188 1010.414062 C 923.074219 1010.621094 919.148438 1010.722656 915.21875 1010.722656 Z M 1106.503906 993.132812 C 1106.878906 993.132812 1107.257812 993.1875 1107.621094 993.300781 C 1125.027344 998.710938 1143.007812 1001.933594 1161.070312 1002.886719 C 1175.261719 1003.632812 1189.597656 1002.976562 1203.6875 1000.945312 C 1203.953125 1000.816406 1204.238281 1000.71875 1204.53125 1000.65625 C 1231.140625 995.023438 1252.847656 969.613281 1255.019531 941.546875 C 1255.617188 933.851562 1255.511719 914.394531 1241.699219 899.953125 C 1233.863281 891.757812 1222.949219 886.523438 1210.140625 884.8125 C 1208.253906 884.558594 1206.851562 882.945312 1206.867188 881.042969 C 1207.070312 858.34375 1205.902344 835.328125 1203.398438 812.632812 C 1203.226562 811.070312 1204.035156 809.566406 1205.433594 808.855469 C 1228.761719 796.988281 1247.164062 780.574219 1260.132812 760.078125 L 1263.320312 762.09375 L 1260.132812 760.078125 C 1277.148438 733.1875 1287.859375 694.910156 1275.417969 673.773438 C 1274.003906 671.371094 1269.707031 664.078125 1263.128906 662.902344 C 1255.648438 661.566406 1248.144531 668.484375 1244.941406 671.433594 L 1244.488281 671.847656 C 1241.171875 674.882812 1237.40625 678.03125 1233.296875 681.203125 C 1231.941406 682.253906 1230.042969 682.25 1228.683594 681.203125 C 1227.328125 680.152344 1226.847656 678.320312 1227.523438 676.738281 C 1258.015625 605.304688 1230.324219 504.136719 1165.785156 451.21875 C 1164.285156 449.988281 1163.964844 447.816406 1165.046875 446.203125 C 1192.414062 405.359375 1216.382812 363.292969 1236.296875 321.183594 C 1257.1875 276.960938 1267.148438 244.859375 1252.289062 221.480469 C 1249.535156 217.144531 1245.984375 213.207031 1241.726562 209.773438 C 1237.183594 206.105469 1231.78125 203.113281 1225.671875 200.875 L 1224.816406 200.558594 C 1218.6875 198.316406 1212.628906 197.109375 1206.824219 196.980469 C 1201.292969 196.863281 1196.023438 197.558594 1191.152344 199.074219 C 1164.609375 207.300781 1151.324219 238.1875 1138.488281 285.359375 C 1127.144531 327.066406 1118.480469 371.144531 1112.730469 416.367188 C 1112.589844 417.484375 1111.957031 418.480469 1111.003906 419.078125 C 1110.046875 419.679688 1108.878906 419.824219 1107.808594 419.472656 C 1067.65625 406.238281 1023.433594 406.246094 983.289062 419.480469 C 982.21875 419.832031 981.046875 419.691406 980.09375 419.089844 C 979.144531 418.488281 978.507812 417.492188 978.367188 416.375 C 972.617188 371.152344 963.953125 327.070312 952.605469 285.359375 C 939.773438 238.1875 926.488281 207.300781 899.949219 199.074219 C 895.074219 197.558594 889.808594 196.867188 884.277344 196.980469 C 878.46875 197.109375 872.410156 198.316406 866.261719 200.566406 L 865.449219 200.867188 C 859.316406 203.113281 853.914062 206.105469 849.371094 209.773438 C 845.117188 213.203125 841.5625 217.144531 838.808594 221.476562 C 823.949219 244.859375 833.910156 276.964844 854.800781 321.183594 C 874.710938 363.292969 898.6875 405.363281 926.0625 446.21875 C 927.140625 447.832031 926.820312 450.003906 925.320312 451.230469 C 884.441406 484.753906 857.03125 538.078125 851.992188 593.875 C 847.953125 638.609375 859.007812 680.007812 882.316406 707.460938 C 888.074219 714.238281 894.851562 720.453125 902.464844 725.929688 C 903.722656 726.835938 904.296875 728.414062 903.914062 729.917969 L 903.378906 731.996094 C 902.902344 733.886719 901.070312 735.109375 899.140625 734.800781 C 870.175781 730.273438 847.691406 724.476562 830.414062 717.082031 L 829.847656 716.835938 C 825.851562 715.109375 816.484375 711.066406 809.867188 714.789062 C 804.039062 718.070312 802.398438 726.375 801.855469 729.105469 C 797.089844 753.164062 819.84375 785.761719 844.785156 805.527344 C 856.332031 814.679688 869.519531 821.839844 883.988281 826.804688 C 885.628906 827.367188 886.671875 828.976562 886.519531 830.707031 C 885.035156 847.375 884.253906 864.203125 884.199219 880.722656 C 884.191406 882.679688 882.691406 884.304688 880.742188 884.46875 C 866.742188 885.644531 854.390625 891.144531 845.964844 899.953125 C 832.15625 914.394531 832.050781 933.851562 832.648438 941.546875 C 834.820312 969.613281 856.523438 995.023438 883.136719 1000.65625 C 883.429688 1000.71875 883.710938 1000.816406 883.980469 1000.945312 C 898.070312 1002.976562 912.398438 1003.632812 926.597656 1002.886719 C 945.074219 1001.914062 963.449219 998.570312 981.207031 992.941406 C 981.839844 992.742188 982.511719 992.710938 983.15625 992.855469 C 1021.972656 1001.390625 1066.640625 1001.523438 1105.71875 993.214844 C 1105.976562 993.160156 1106.238281 993.132812 1106.503906 993.132812 Z M 1106.503906 993.132812 " fill-opacity="1" fill-rule="nonzero"/></g><path fill="#682b40" d="M 987.035156 592.214844 C 987.035156 593.003906 987.003906 593.792969 986.941406 594.574219 C 986.878906 595.359375 986.785156 596.136719 986.660156 596.910156 C 986.535156 597.683594 986.382812 598.449219 986.199219 599.203125 C 986.011719 599.957031 985.796875 600.699219 985.554688 601.425781 C 985.3125 602.152344 985.039062 602.863281 984.738281 603.558594 C 984.4375 604.253906 984.113281 604.929688 983.757812 605.585938 C 983.402344 606.242188 983.023438 606.875 982.621094 607.484375 C 982.21875 608.089844 981.789062 608.675781 981.339844 609.230469 C 980.890625 609.789062 980.417969 610.316406 979.925781 610.816406 C 979.433594 611.316406 978.921875 611.785156 978.394531 612.226562 C 977.863281 612.664062 977.320312 613.066406 976.757812 613.4375 C 976.195312 613.808594 975.621094 614.148438 975.03125 614.449219 C 974.445312 614.75 973.84375 615.015625 973.234375 615.246094 C 972.625 615.472656 972.007812 615.664062 971.386719 615.816406 C 970.761719 615.972656 970.132812 616.085938 969.496094 616.164062 C 968.863281 616.242188 968.230469 616.28125 967.59375 616.28125 C 966.957031 616.28125 966.320312 616.242188 965.6875 616.164062 C 965.050781 616.085938 964.421875 615.972656 963.796875 615.816406 C 963.175781 615.664062 962.558594 615.472656 961.949219 615.246094 C 961.339844 615.015625 960.738281 614.75 960.152344 614.449219 C 959.5625 614.148438 958.988281 613.808594 958.425781 613.4375 C 957.863281 613.066406 957.320312 612.664062 956.789062 612.226562 C 956.261719 611.785156 955.75 611.316406 955.257812 610.816406 C 954.765625 610.316406 954.292969 609.789062 953.84375 609.230469 C 953.394531 608.675781 952.964844 608.089844 952.5625 607.484375 C 952.160156 606.875 951.78125 606.242188 951.425781 605.585938 C 951.070312 604.929688 950.746094 604.253906 950.445312 603.558594 C 950.144531 602.863281 949.871094 602.152344 949.628906 601.425781 C 949.386719 600.699219 949.171875 599.957031 948.988281 599.203125 C 948.800781 598.449219 948.648438 597.683594 948.523438 596.910156 C 948.398438 596.136719 948.304688 595.359375 948.242188 594.574219 C 948.179688 593.792969 948.148438 593.003906 948.148438 592.214844 C 948.148438 591.429688 948.179688 590.640625 948.242188 589.859375 C 948.304688 589.074219 948.398438 588.296875 948.523438 587.523438 C 948.648438 586.75 948.800781 585.984375 948.988281 585.230469 C 949.171875 584.476562 949.386719 583.734375 949.628906 583.007812 C 949.871094 582.28125 950.144531 581.566406 950.445312 580.875 C 950.746094 580.179688 951.070312 579.503906 951.425781 578.847656 C 951.78125 578.191406 952.160156 577.558594 952.5625 576.949219 C 952.964844 576.339844 953.394531 575.757812 953.84375 575.199219 C 954.292969 574.644531 954.765625 574.113281 955.257812 573.613281 C 955.75 573.113281 956.261719 572.644531 956.789062 572.207031 C 957.320312 571.769531 957.863281 571.367188 958.425781 570.996094 C 958.988281 570.621094 959.5625 570.285156 960.152344 569.984375 C 960.738281 569.683594 961.339844 569.417969 961.949219 569.1875 C 962.558594 568.960938 963.175781 568.769531 963.796875 568.617188 C 964.421875 568.460938 965.050781 568.347656 965.6875 568.269531 C 966.320312 568.191406 966.957031 568.152344 967.59375 568.152344 C 968.230469 568.152344 968.863281 568.191406 969.496094 568.269531 C 970.132812 568.347656 970.761719 568.460938 971.386719 568.617188 C 972.007812 568.769531 972.625 568.960938 973.234375 569.1875 C 973.84375 569.417969 974.445312 569.683594 975.03125 569.984375 C 975.621094 570.285156 976.195312 570.621094 976.757812 570.996094 C 977.320312 571.367188 977.863281 571.769531 978.394531 572.207031 C 978.921875 572.644531 979.433594 573.113281 979.925781 573.613281 C 980.417969 574.113281 980.890625 574.644531 981.339844 575.199219 C 981.789062 575.757812 982.21875 576.339844 982.621094 576.949219 C 983.023438 577.558594 983.402344 578.191406 983.757812 578.847656 C 984.113281 579.503906 984.4375 580.179688 984.738281 580.875 C 985.039062 581.566406 985.3125 582.28125 985.554688 583.007812 C 985.796875 583.734375 986.011719 584.476562 986.199219 585.230469 C 986.382812 585.984375 986.535156 586.75 986.660156 587.523438 C 986.785156 588.296875 986.878906 589.074219 986.941406 589.859375 C 987.003906 590.640625 987.035156 591.429688 987.035156 592.214844 Z M 987.035156 592.214844 " fill-opacity="1" fill-rule="nonzero"/><path fill="#682b40" d="M 1144.425781 592.214844 C 1144.425781 593.003906 1144.394531 593.792969 1144.332031 594.574219 C 1144.269531 595.359375 1144.175781 596.136719 1144.050781 596.910156 C 1143.925781 597.683594 1143.773438 598.449219 1143.585938 599.203125 C 1143.402344 599.957031 1143.1875 600.699219 1142.945312 601.425781 C 1142.699219 602.152344 1142.429688 602.863281 1142.128906 603.558594 C 1141.828125 604.253906 1141.5 604.929688 1141.148438 605.585938 C 1140.792969 606.242188 1140.414062 606.875 1140.011719 607.484375 C 1139.605469 608.089844 1139.179688 608.675781 1138.730469 609.230469 C 1138.277344 609.789062 1137.808594 610.316406 1137.316406 610.816406 C 1136.824219 611.316406 1136.3125 611.785156 1135.78125 612.226562 C 1135.253906 612.664062 1134.707031 613.066406 1134.148438 613.4375 C 1133.585938 613.808594 1133.011719 614.148438 1132.421875 614.449219 C 1131.832031 614.75 1131.234375 615.015625 1130.625 615.246094 C 1130.015625 615.472656 1129.398438 615.664062 1128.773438 615.816406 C 1128.148438 615.972656 1127.519531 616.085938 1126.886719 616.164062 C 1126.253906 616.242188 1125.617188 616.28125 1124.980469 616.28125 C 1124.34375 616.28125 1123.710938 616.242188 1123.074219 616.164062 C 1122.441406 616.085938 1121.8125 615.972656 1121.1875 615.816406 C 1120.5625 615.664062 1119.945312 615.472656 1119.335938 615.246094 C 1118.726562 615.015625 1118.128906 614.75 1117.539062 614.449219 C 1116.953125 614.148438 1116.378906 613.808594 1115.816406 613.4375 C 1115.253906 613.066406 1114.710938 612.664062 1114.179688 612.226562 C 1113.648438 611.785156 1113.140625 611.316406 1112.648438 610.816406 C 1112.15625 610.316406 1111.683594 609.789062 1111.234375 609.230469 C 1110.78125 608.675781 1110.355469 608.089844 1109.953125 607.484375 C 1109.546875 606.875 1109.167969 606.242188 1108.816406 605.585938 C 1108.460938 604.929688 1108.132812 604.253906 1107.835938 603.558594 C 1107.535156 602.863281 1107.261719 602.152344 1107.019531 601.425781 C 1106.773438 600.699219 1106.5625 599.957031 1106.375 599.203125 C 1106.191406 598.449219 1106.035156 597.683594 1105.914062 596.910156 C 1105.789062 596.136719 1105.695312 595.359375 1105.632812 594.574219 C 1105.570312 593.792969 1105.539062 593.003906 1105.539062 592.214844 C 1105.539062 591.429688 1105.570312 590.640625 1105.632812 589.859375 C 1105.695312 589.074219 1105.789062 588.296875 1105.914062 587.523438 C 1106.035156 586.75 1106.191406 585.984375 1106.375 585.230469 C 1106.5625 584.476562 1106.773438 583.734375 1107.019531 583.007812 C 1107.261719 582.28125 1107.535156 581.566406 1107.835938 580.875 C 1108.132812 580.179688 1108.460938 579.503906 1108.816406 578.847656 C 1109.167969 578.191406 1109.546875 577.558594 1109.953125 576.949219 C 1110.355469 576.339844 1110.78125 575.757812 1111.234375 575.199219 C 1111.683594 574.644531 1112.15625 574.113281 1112.648438 573.613281 C 1113.140625 573.113281 1113.648438 572.644531 1114.179688 572.207031 C 1114.710938 571.769531 1115.253906 571.367188 1115.816406 570.996094 C 1116.378906 570.621094 1116.953125 570.285156 1117.539062 569.984375 C 1118.128906 569.683594 1118.726562 569.417969 1119.335938 569.1875 C 1119.945312 568.960938 1120.5625 568.769531 1121.1875 568.617188 C 1121.8125 568.460938 1122.441406 568.347656 1123.074219 568.269531 C 1123.710938 568.191406 1124.34375 568.152344 1124.980469 568.152344 C 1125.617188 568.152344 1126.253906 568.191406 1126.886719 568.269531 C 1127.519531 568.347656 1128.148438 568.460938 1128.773438 568.617188 C 1129.398438 568.769531 1130.015625 568.960938 1130.625 569.1875 C 1131.234375 569.417969 1131.832031 569.683594 1132.421875 569.984375 C 1133.011719 570.285156 1133.585938 570.621094 1134.148438 570.996094 C 1134.707031 571.367188 1135.253906 571.769531 1135.78125 572.207031 C 1136.3125 572.644531 1136.824219 573.113281 1137.316406 573.613281 C 1137.808594 574.113281 1138.277344 574.644531 1138.730469 575.199219 C 1139.179688 575.757812 1139.605469 576.339844 1140.011719 576.949219 C 1140.414062 577.558594 1140.792969 578.191406 1141.148438 578.847656 C 1141.5 579.503906 1141.828125 580.179688 1142.128906 580.875 C 1142.429688 581.566406 1142.699219 582.28125 1142.945312 583.007812 C 1143.1875 583.734375 1143.402344 584.476562 1143.585938 585.230469 C 1143.773438 585.984375 1143.925781 586.75 1144.050781 587.523438 C 1144.175781 588.296875 1144.269531 589.074219 1144.332031 589.859375 C 1144.394531 590.640625 1144.425781 591.429688 1144.425781 592.214844 Z M 1144.425781 592.214844 " fill-opacity="1" fill-rule="nonzero"/><path fill="#682b40" d="M 1066.125 599.355469 C 1066.125 603.300781 1057.242188 614.429688 1046.285156 614.429688 C 1035.328125 614.429688 1026.445312 603.300781 1026.445312 599.355469 C 1026.445312 595.414062 1035.328125 592.21875 1046.285156 592.21875 C 1057.242188 592.21875 1066.125 595.414062 1066.125 599.355469 Z M 1066.125 599.355469 " fill-opacity="1" fill-rule="nonzero"/><path fill="#682b40" d="M 1043.339844 610.519531 C 1043.675781 617 1038.109375 623.480469 1031.5 623.480469 C 1024.902344 623.484375 1019.285156 617.085938 1019.605469 610.570312 C 1019.699219 608.585938 1017.84375 606.894531 1015.925781 606.894531 C 1013.855469 606.894531 1012.347656 608.578125 1012.25 610.570312 C 1011.738281 621.050781 1020.960938 630.851562 1031.5 630.835938 C 1042.03125 630.816406 1051.238281 621.003906 1050.695312 610.519531 C 1050.589844 608.535156 1049.078125 606.84375 1047.015625 606.84375 C 1045.105469 606.84375 1043.234375 608.527344 1043.339844 610.519531 Z M 1043.339844 610.519531 " fill-opacity="1" fill-rule="nonzero"/><path fill="#682b40" d="M 1041.878906 610.519531 C 1041.332031 621.003906 1050.542969 630.816406 1061.074219 630.835938 C 1071.609375 630.851562 1080.832031 621.050781 1080.324219 610.570312 C 1080.226562 608.585938 1078.703125 606.894531 1076.644531 606.894531 C 1074.730469 606.894531 1072.871094 608.578125 1072.96875 610.570312 C 1073.285156 617.058594 1067.679688 623.503906 1061.074219 623.480469 C 1054.472656 623.460938 1048.894531 617.027344 1049.234375 610.519531 C 1049.335938 608.535156 1047.46875 606.84375 1045.554688 606.84375 C 1043.480469 606.84375 1041.984375 608.527344 1041.878906 610.519531 Z M 1041.878906 610.519531 " fill-opacity="1" fill-rule="nonzero"/><path fill="#f59eae" d="M 958.554688 628.371094 C 958.554688 628.855469 958.515625 629.339844 958.4375 629.820312 C 958.363281 630.304688 958.246094 630.785156 958.09375 631.257812 C 957.9375 631.734375 957.746094 632.203125 957.519531 632.667969 C 957.289062 633.132812 957.023438 633.589844 956.722656 634.039062 C 956.421875 634.484375 956.085938 634.921875 955.714844 635.351562 C 955.339844 635.777344 954.9375 636.195312 954.5 636.597656 C 954.058594 637 953.589844 637.390625 953.089844 637.765625 C 952.589844 638.140625 952.0625 638.5 951.503906 638.839844 C 950.949219 639.183594 950.363281 639.507812 949.753906 639.816406 C 949.144531 640.125 948.511719 640.414062 947.855469 640.683594 C 947.203125 640.953125 946.527344 641.203125 945.832031 641.429688 C 945.136719 641.660156 944.425781 641.867188 943.695312 642.050781 C 942.96875 642.238281 942.226562 642.398438 941.472656 642.539062 C 940.71875 642.683594 939.953125 642.800781 939.179688 642.894531 C 938.40625 642.988281 937.628906 643.058594 936.84375 643.105469 C 936.058594 643.15625 935.273438 643.179688 934.484375 643.179688 C 933.695312 643.179688 932.910156 643.15625 932.125 643.105469 C 931.339844 643.058594 930.5625 642.988281 929.789062 642.894531 C 929.015625 642.800781 928.25 642.683594 927.496094 642.539062 C 926.742188 642.398438 926 642.238281 925.273438 642.050781 C 924.542969 641.867188 923.832031 641.660156 923.136719 641.429688 C 922.441406 641.203125 921.765625 640.953125 921.109375 640.683594 C 920.457031 640.414062 919.824219 640.125 919.214844 639.816406 C 918.605469 639.507812 918.019531 639.183594 917.464844 638.839844 C 916.90625 638.5 916.375 638.140625 915.875 637.765625 C 915.375 637.390625 914.90625 637 914.46875 636.597656 C 914.03125 636.195312 913.625 635.777344 913.253906 635.351562 C 912.882812 634.921875 912.546875 634.484375 912.246094 634.039062 C 911.941406 633.589844 911.679688 633.132812 911.449219 632.667969 C 911.21875 632.203125 911.027344 631.734375 910.875 631.257812 C 910.722656 630.785156 910.605469 630.304688 910.527344 629.820312 C 910.453125 629.339844 910.414062 628.855469 910.414062 628.371094 C 910.414062 627.886719 910.453125 627.402344 910.527344 626.917969 C 910.605469 626.4375 910.722656 625.957031 910.875 625.480469 C 911.027344 625.003906 911.21875 624.535156 911.449219 624.070312 C 911.679688 623.609375 911.941406 623.152344 912.246094 622.703125 C 912.546875 622.253906 912.882812 621.816406 913.253906 621.390625 C 913.625 620.960938 914.03125 620.546875 914.46875 620.144531 C 914.90625 619.742188 915.375 619.351562 915.875 618.976562 C 916.375 618.601562 916.90625 618.242188 917.464844 617.898438 C 918.019531 617.554688 918.605469 617.230469 919.214844 616.921875 C 919.824219 616.617188 920.457031 616.328125 921.109375 616.058594 C 921.765625 615.789062 922.441406 615.539062 923.136719 615.3125 C 923.832031 615.082031 924.542969 614.875 925.273438 614.691406 C 926 614.503906 926.742188 614.339844 927.496094 614.199219 C 928.25 614.058594 929.015625 613.941406 929.789062 613.847656 C 930.5625 613.753906 931.339844 613.679688 932.125 613.632812 C 932.910156 613.585938 933.695312 613.5625 934.484375 613.5625 C 935.273438 613.5625 936.058594 613.585938 936.84375 613.632812 C 937.628906 613.679688 938.40625 613.753906 939.179688 613.847656 C 939.953125 613.941406 940.71875 614.058594 941.472656 614.199219 C 942.226562 614.339844 942.96875 614.503906 943.695312 614.691406 C 944.425781 614.875 945.136719 615.082031 945.832031 615.3125 C 946.527344 615.539062 947.203125 615.789062 947.855469 616.058594 C 948.511719 616.328125 949.144531 616.617188 949.753906 616.921875 C 950.363281 617.230469 950.949219 617.554688 951.503906 617.898438 C 952.0625 618.242188 952.589844 618.601562 953.089844 618.976562 C 953.589844 619.351562 954.058594 619.742188 954.5 620.144531 C 954.9375 620.546875 955.339844 620.960938 955.714844 621.390625 C 956.085938 621.816406 956.421875 622.253906 956.722656 622.703125 C 957.023438 623.152344 957.289062 623.609375 957.519531 624.070312 C 957.746094 624.535156 957.9375 625.003906 958.09375 625.480469 C 958.246094 625.957031 958.363281 626.4375 958.4375 626.917969 C 958.515625 627.402344 958.554688 627.886719 958.554688 628.371094 Z M 958.554688 628.371094 " fill-opacity="1" fill-rule="nonzero"/><path fill="#d68395" d="M 919.582031 634.070312 C 918.886719 634.070312 918.21875 633.683594 917.890625 633.019531 C 917.429688 632.085938 917.8125 630.953125 918.746094 630.492188 C 920.753906 629.503906 922.433594 628.1875 923.605469 626.6875 C 924.445312 625.609375 925.03125 624.441406 925.335938 623.222656 C 925.59375 622.214844 926.613281 621.601562 927.628906 621.855469 C 928.636719 622.113281 929.25 623.136719 928.996094 624.144531 C 928.558594 625.875 927.742188 627.511719 926.578125 629.007812 C 925.058594 630.953125 922.929688 632.636719 920.417969 633.875 C 920.148438 634.007812 919.863281 634.070312 919.582031 634.070312 Z M 919.582031 634.070312 " fill-opacity="1" fill-rule="nonzero"/><path fill="#d68395" d="M 930.691406 634.070312 C 929.996094 634.070312 929.328125 633.683594 929 633.019531 C 928.539062 632.085938 928.921875 630.953125 929.855469 630.492188 C 931.863281 629.503906 933.542969 628.1875 934.714844 626.6875 C 935.554688 625.609375 936.136719 624.445312 936.449219 623.21875 C 936.703125 622.214844 937.726562 621.601562 938.738281 621.855469 C 939.75 622.113281 940.359375 623.136719 940.105469 624.148438 C 939.664062 625.878906 938.851562 627.515625 937.6875 629.007812 C 936.167969 630.953125 934.039062 632.636719 931.523438 633.875 C 931.257812 634.007812 930.972656 634.070312 930.691406 634.070312 Z M 930.691406 634.070312 " fill-opacity="1" fill-rule="nonzero"/><path fill="#d68395" d="M 941.804688 634.070312 C 941.105469 634.070312 940.4375 633.683594 940.109375 633.019531 C 939.648438 632.085938 940.035156 630.953125 940.96875 630.492188 C 942.972656 629.503906 944.652344 628.1875 945.824219 626.6875 C 946.664062 625.609375 947.25 624.445312 947.558594 623.222656 C 947.8125 622.214844 948.832031 621.601562 949.847656 621.855469 C 950.855469 622.113281 951.46875 623.136719 951.214844 624.144531 C 950.777344 625.878906 949.960938 627.511719 948.796875 629.007812 C 947.277344 630.953125 945.148438 632.636719 942.636719 633.875 C 942.367188 634.007812 942.082031 634.070312 941.804688 634.070312 Z M 941.804688 634.070312 " fill-opacity="1" fill-rule="nonzero"/><path fill="#f59eae" d="M 1180.683594 629.238281 C 1180.683594 629.722656 1180.644531 630.207031 1180.570312 630.691406 C 1180.492188 631.171875 1180.375 631.652344 1180.222656 632.128906 C 1180.066406 632.601562 1179.878906 633.074219 1179.648438 633.535156 C 1179.417969 634 1179.152344 634.457031 1178.851562 634.90625 C 1178.550781 635.351562 1178.214844 635.789062 1177.84375 636.21875 C 1177.472656 636.644531 1177.066406 637.0625 1176.628906 637.464844 C 1176.191406 637.867188 1175.722656 638.257812 1175.222656 638.632812 C 1174.71875 639.007812 1174.191406 639.367188 1173.632812 639.710938 C 1173.078125 640.050781 1172.492188 640.378906 1171.882812 640.683594 C 1171.273438 640.992188 1170.640625 641.28125 1169.988281 641.550781 C 1169.332031 641.820312 1168.65625 642.070312 1167.960938 642.296875 C 1167.265625 642.527344 1166.554688 642.734375 1165.824219 642.917969 C 1165.097656 643.105469 1164.355469 643.269531 1163.601562 643.410156 C 1162.847656 643.550781 1162.082031 643.667969 1161.308594 643.761719 C 1160.535156 643.855469 1159.757812 643.925781 1158.972656 643.976562 C 1158.1875 644.023438 1157.402344 644.046875 1156.613281 644.046875 C 1155.824219 644.046875 1155.039062 644.023438 1154.253906 643.976562 C 1153.46875 643.925781 1152.691406 643.855469 1151.917969 643.761719 C 1151.144531 643.667969 1150.378906 643.550781 1149.625 643.410156 C 1148.871094 643.269531 1148.128906 643.105469 1147.402344 642.917969 C 1146.671875 642.734375 1145.960938 642.527344 1145.265625 642.296875 C 1144.570312 642.070312 1143.894531 641.820312 1143.238281 641.550781 C 1142.585938 641.28125 1141.953125 640.992188 1141.34375 640.683594 C 1140.734375 640.378906 1140.148438 640.050781 1139.59375 639.710938 C 1139.035156 639.367188 1138.507812 639.007812 1138.007812 638.632812 C 1137.507812 638.257812 1137.035156 637.867188 1136.597656 637.464844 C 1136.160156 637.0625 1135.757812 636.644531 1135.382812 636.21875 C 1135.011719 635.789062 1134.675781 635.351562 1134.375 634.90625 C 1134.074219 634.457031 1133.808594 634 1133.578125 633.535156 C 1133.351562 633.074219 1133.160156 632.601562 1133.003906 632.128906 C 1132.851562 631.652344 1132.734375 631.171875 1132.65625 630.691406 C 1132.582031 630.207031 1132.542969 629.722656 1132.542969 629.238281 C 1132.542969 628.753906 1132.582031 628.269531 1132.65625 627.785156 C 1132.734375 627.304688 1132.851562 626.824219 1133.003906 626.347656 C 1133.160156 625.875 1133.351562 625.402344 1133.578125 624.941406 C 1133.808594 624.476562 1134.074219 624.019531 1134.375 623.570312 C 1134.675781 623.125 1135.011719 622.683594 1135.382812 622.257812 C 1135.757812 621.828125 1136.160156 621.414062 1136.597656 621.011719 C 1137.035156 620.609375 1137.507812 620.21875 1138.007812 619.84375 C 1138.507812 619.46875 1139.035156 619.109375 1139.59375 618.765625 C 1140.148438 618.425781 1140.734375 618.097656 1141.34375 617.792969 C 1141.953125 617.484375 1142.585938 617.195312 1143.238281 616.925781 C 1143.894531 616.65625 1144.570312 616.40625 1145.265625 616.179688 C 1145.960938 615.949219 1146.671875 615.742188 1147.402344 615.558594 C 1148.128906 615.371094 1148.871094 615.207031 1149.625 615.066406 C 1150.378906 614.925781 1151.144531 614.808594 1151.917969 614.714844 C 1152.691406 614.621094 1153.46875 614.550781 1154.253906 614.5 C 1155.039062 614.453125 1155.824219 614.429688 1156.613281 614.429688 C 1157.402344 614.429688 1158.1875 614.453125 1158.972656 614.5 C 1159.757812 614.550781 1160.535156 614.621094 1161.308594 614.714844 C 1162.082031 614.808594 1162.847656 614.925781 1163.601562 615.066406 C 1164.355469 615.207031 1165.097656 615.371094 1165.824219 615.558594 C 1166.554688 615.742188 1167.265625 615.949219 1167.960938 616.179688 C 1168.65625 616.40625 1169.332031 616.65625 1169.988281 616.925781 C 1170.640625 617.195312 1171.273438 617.484375 1171.882812 617.792969 C 1172.492188 618.097656 1173.078125 618.425781 1173.632812 618.765625 C 1174.191406 619.109375 1174.71875 619.46875 1175.222656 619.84375 C 1175.722656 620.21875 1176.191406 620.609375 1176.628906 621.011719 C 1177.066406 621.414062 1177.472656 621.828125 1177.84375 622.257812 C 1178.214844 622.683594 1178.550781 623.125 1178.851562 623.570312 C 1179.152344 624.019531 1179.417969 624.476562 1179.648438 624.941406 C 1179.878906 625.402344 1180.066406 625.875 1180.222656 626.347656 C 1180.375 626.824219 1180.492188 627.304688 1180.570312 627.785156 C 1180.644531 628.269531 1180.683594 628.753906 1180.683594 629.238281 Z M 1180.683594 629.238281 " fill-opacity="1" fill-rule="nonzero"/><path fill="#d68395" d="M 1141.714844 634.9375 C 1141.015625 634.9375 1140.347656 634.550781 1140.019531 633.882812 C 1139.558594 632.949219 1139.945312 631.820312 1140.878906 631.359375 C 1142.882812 630.375 1144.558594 629.058594 1145.734375 627.554688 C 1146.574219 626.476562 1147.160156 625.3125 1147.46875 624.089844 C 1147.722656 623.082031 1148.753906 622.476562 1149.757812 622.726562 C 1150.769531 622.980469 1151.378906 624.007812 1151.125 625.015625 C 1150.683594 626.746094 1149.871094 628.382812 1148.707031 629.875 C 1147.1875 631.824219 1145.054688 633.507812 1142.542969 634.742188 C 1142.277344 634.875 1141.992188 634.9375 1141.714844 634.9375 Z M 1141.714844 634.9375 " fill-opacity="1" fill-rule="nonzero"/><path fill="#d68395" d="M 1152.824219 634.9375 C 1152.125 634.9375 1151.457031 634.550781 1151.128906 633.882812 C 1150.667969 632.949219 1151.054688 631.820312 1151.988281 631.359375 C 1153.992188 630.375 1155.671875 629.058594 1156.84375 627.554688 C 1157.683594 626.476562 1158.269531 625.308594 1158.578125 624.089844 C 1158.832031 623.082031 1159.871094 622.476562 1160.867188 622.726562 C 1161.878906 622.980469 1162.488281 624.007812 1162.234375 625.015625 C 1161.796875 626.746094 1160.984375 628.378906 1159.816406 629.875 C 1158.296875 631.824219 1156.164062 633.503906 1153.652344 634.742188 C 1153.386719 634.875 1153.101562 634.9375 1152.824219 634.9375 Z M 1152.824219 634.9375 " fill-opacity="1" fill-rule="nonzero"/><path fill="#d68395" d="M 1163.933594 634.9375 C 1163.234375 634.9375 1162.566406 634.550781 1162.238281 633.882812 C 1161.777344 632.949219 1162.164062 631.820312 1163.097656 631.359375 C 1165.101562 630.375 1166.78125 629.058594 1167.953125 627.554688 C 1168.792969 626.480469 1169.378906 625.3125 1169.6875 624.089844 C 1169.945312 623.082031 1170.964844 622.464844 1171.980469 622.726562 C 1172.988281 622.984375 1173.597656 624.007812 1173.34375 625.015625 C 1172.902344 626.746094 1172.089844 628.382812 1170.925781 629.875 C 1169.40625 631.824219 1167.273438 633.507812 1164.761719 634.742188 C 1164.496094 634.875 1164.210938 634.9375 1163.933594 634.9375 Z M 1163.933594 634.9375 " fill-opacity="1" fill-rule="nonzero"/><path fill="#f59eae" d="M 1251.550781 690.425781 C 1239.859375 688.488281 1225.894531 701.0625 1228.355469 713.617188 C 1229.996094 721.992188 1238.660156 728.839844 1247.332031 728.371094 C 1259.882812 727.695312 1268.378906 711.929688 1264.203125 700.96875 C 1262.214844 695.738281 1257.253906 691.371094 1251.550781 690.425781 Z M 1251.550781 690.425781 " fill-opacity="1" fill-rule="nonzero"/><path fill="#f59eae" d="M 821.71875 743.835938 C 818.058594 755.101562 828.414062 770.785156 841.195312 770.226562 C 849.730469 769.851562 857.792969 762.308594 858.625 753.664062 C 859.828125 741.160156 845.5 730.410156 834.035156 732.898438 C 828.566406 734.085938 823.507812 738.339844 821.71875 743.835938 Z M 821.71875 743.835938 " fill-opacity="1" fill-rule="nonzero"/><path fill="#682b40" d="M 793.742188 913.359375 C 793.394531 913.359375 793.042969 913.3125 792.691406 913.210938 C 790.691406 912.632812 789.539062 910.542969 790.117188 908.542969 C 815.59375 820.378906 829.453125 729.699219 831.304688 639.019531 C 832.195312 595.5 830.304688 551.421875 825.6875 508.003906 C 825.46875 505.933594 826.96875 504.078125 829.039062 503.855469 C 831.097656 503.660156 832.96875 505.136719 833.191406 507.210938 C 837.839844 550.941406 839.742188 595.339844 838.847656 639.175781 C 836.980469 730.511719 823.023438 821.84375 797.363281 910.632812 C 796.886719 912.285156 795.378906 913.359375 793.742188 913.359375 Z M 793.742188 913.359375 " fill-opacity="1" fill-rule="nonzero"/><path fill="#92d3eb" d="M 1112.195312 421.46875 C 1098.816406 426.921875 1076.042969 434.226562 1046.507812 435.152344 C 1017.933594 436.035156 995.148438 430.558594 981.441406 426.191406 C 981.121094 426.085938 980.816406 425.945312 980.535156 425.800781 C 978.425781 424.636719 977.375 422.097656 978.152344 419.730469 L 986.804688 393.480469 L 997.945312 359.683594 L 1010.140625 322.675781 L 1033.078125 253.058594 C 1033.472656 251.855469 1034.835938 250.980469 1036.433594 250.90625 C 1038.011719 250.847656 1039.472656 251.628906 1040.019531 252.808594 L 1063.339844 303.203125 L 1078.664062 336.296875 L 1089.082031 358.816406 L 1104.519531 392.160156 L 1114.890625 414.582031 C 1116.121094 417.230469 1114.890625 420.371094 1112.195312 421.46875 Z M 1112.195312 421.46875 " fill-opacity="1" fill-rule="nonzero"/><path fill="#f59eae" d="M 1104.519531 392.160156 C 1065.792969 411.007812 1023.472656 422.398438 980.535156 425.800781 C 978.425781 424.636719 977.375 422.097656 978.152344 419.730469 L 986.804688 393.480469 C 1022.292969 386.738281 1056.832031 375.0625 1089.082031 358.816406 Z M 1104.519531 392.160156 " fill-opacity="1" fill-rule="nonzero"/><path fill="#f59eae" d="M 1078.664062 336.296875 C 1052.847656 347.339844 1025.675781 355.1875 997.945312 359.683594 L 1010.140625 322.675781 C 1028.3125 317.488281 1046.121094 310.972656 1063.339844 303.203125 Z M 1078.664062 336.296875 " fill-opacity="1" fill-rule="nonzero"/><path fill="#682b40" d="M 1040.53125 439.015625 C 1020.042969 439.015625 999.34375 435.851562 980.296875 429.78125 C 979.691406 429.589844 979.1875 429.34375 978.8125 429.152344 C 974.980469 427.042969 973.238281 422.609375 974.566406 418.554688 L 1029.496094 251.878906 C 1030.378906 249.191406 1033.097656 247.285156 1036.253906 247.136719 C 1039.375 247.019531 1042.25 248.667969 1043.4375 251.214844 L 1118.3125 413 C 1119.332031 415.1875 1119.410156 417.738281 1118.523438 419.992188 C 1117.640625 422.238281 1115.851562 424.050781 1113.617188 424.957031 C 1099.246094 430.820312 1075.953125 438 1046.625 438.921875 C 1044.597656 438.984375 1042.566406 439.015625 1040.53125 439.015625 Z M 1036.515625 254.679688 L 981.734375 420.910156 C 981.535156 421.519531 981.796875 422.1875 982.355469 422.5 C 982.363281 422.5 982.472656 422.5625 982.59375 422.601562 C 1002.71875 429.015625 1024.769531 432.054688 1046.390625 431.386719 C 1074.597656 430.5 1096.96875 423.605469 1110.769531 417.976562 C 1110.769531 417.976562 1110.773438 417.976562 1110.773438 417.976562 C 1111.226562 417.792969 1111.425781 417.429688 1111.503906 417.234375 C 1111.582031 417.03125 1111.683594 416.628906 1111.472656 416.175781 L 1036.734375 254.6875 C 1036.6875 254.675781 1036.632812 254.671875 1036.566406 254.671875 C 1036.546875 254.671875 1036.53125 254.675781 1036.515625 254.679688 Z M 1036.515625 254.679688 " fill-opacity="1" fill-rule="nonzero"/><path fill="#682b40" d="M 980.535156 429.570312 C 979.898438 429.570312 979.273438 429.410156 978.714844 429.101562 C 974.980469 427.042969 973.238281 422.609375 974.566406 418.554688 L 983.222656 392.300781 C 983.652344 390.996094 984.753906 390.03125 986.101562 389.773438 C 1021.417969 383.066406 1055.492188 371.515625 1087.386719 355.449219 C 1088.296875 354.988281 1089.359375 354.917969 1090.324219 355.253906 C 1091.289062 355.589844 1092.074219 356.304688 1092.503906 357.230469 L 1107.941406 390.574219 C 1108.804688 392.4375 1108.015625 394.648438 1106.167969 395.546875 C 1066.953125 414.636719 1024.785156 426.078125 980.832031 429.558594 C 980.734375 429.566406 980.632812 429.570312 980.535156 429.570312 Z M 989.695312 396.761719 L 981.734375 420.910156 C 981.621094 421.25 981.652344 421.609375 981.800781 421.914062 C 1022.441406 418.5 1063.03125 407.621094 1099.53125 390.367188 L 1087.289062 363.917969 C 1056.441406 379.074219 1023.636719 390.117188 989.695312 396.761719 Z M 989.695312 396.761719 " fill-opacity="1" fill-rule="nonzero"/><path fill="#682b40" d="M 997.945312 363.453125 C 996.851562 363.453125 995.800781 362.980469 995.078125 362.132812 C 994.222656 361.132812 993.953125 359.757812 994.363281 358.503906 L 1006.558594 321.496094 C 1006.949219 320.3125 1007.902344 319.394531 1009.105469 319.050781 C 1027.082031 313.917969 1044.808594 307.429688 1061.789062 299.765625 C 1063.671875 298.921875 1065.894531 299.742188 1066.761719 301.621094 L 1082.089844 334.710938 C 1082.515625 335.636719 1082.554688 336.695312 1082.1875 337.644531 C 1081.820312 338.597656 1081.085938 339.359375 1080.148438 339.761719 C 1054.140625 350.886719 1026.6875 358.84375 998.550781 363.40625 C 998.347656 363.4375 998.148438 363.453125 997.945312 363.453125 Z M 1013.101562 325.746094 L 1003.492188 354.910156 C 1027.589844 350.550781 1051.128906 343.644531 1073.601562 334.335938 L 1061.480469 308.160156 C 1045.816406 315.046875 1029.570312 320.953125 1013.101562 325.746094 Z M 1013.101562 325.746094 " fill-opacity="1" fill-rule="nonzero"/><path fill="#f59eae" d="M 1052.992188 280.855469 C 1042.316406 284.9375 1031.457031 288.457031 1020.433594 291.429688 L 1033.078125 253.058594 C 1033.472656 251.855469 1034.835938 250.980469 1036.433594 250.90625 C 1038.011719 250.847656 1039.472656 251.628906 1040.019531 252.808594 Z M 1052.992188 280.855469 " fill-opacity="1" fill-rule="nonzero"/><path fill="#682b40" d="M 1020.433594 295.199219 C 1019.410156 295.199219 1018.417969 294.785156 1017.695312 294.023438 C 1016.742188 293.015625 1016.417969 291.566406 1016.851562 290.25 L 1029.496094 251.878906 C 1030.378906 249.191406 1033.097656 247.285156 1036.253906 247.136719 C 1039.375 247.019531 1042.25 248.667969 1043.4375 251.214844 L 1056.414062 279.277344 C 1056.855469 280.222656 1056.878906 281.308594 1056.484375 282.277344 C 1056.09375 283.246094 1055.316406 284.003906 1054.339844 284.378906 C 1043.664062 288.460938 1032.585938 292.058594 1021.417969 295.070312 C 1021.089844 295.15625 1020.761719 295.199219 1020.433594 295.199219 Z M 1036.515625 254.679688 L 1026.230469 285.886719 C 1033.542969 283.746094 1040.785156 281.359375 1047.863281 278.753906 L 1036.734375 254.6875 C 1036.6875 254.675781 1036.632812 254.671875 1036.566406 254.671875 C 1036.546875 254.671875 1036.53125 254.675781 1036.515625 254.679688 Z M 1036.515625 254.679688 " fill-opacity="1" fill-rule="nonzero"/><path fill="#fdedbc" d="M 1059.757812 225.222656 C 1056.300781 222.882812 1051.503906 223.082031 1047.925781 225.785156 C 1047.96875 225.453125 1048.625 219.804688 1044.285156 216.316406 C 1044.050781 216.128906 1039.878906 212.882812 1035.535156 214.519531 C 1031.503906 216.035156 1028.925781 221.148438 1030.179688 226.625 C 1027.527344 220.828125 1021.386719 218.230469 1016.679688 220 C 1013.285156 221.277344 1010.046875 225.046875 1010.558594 229.53125 C 1010.945312 232.9375 1013.394531 235.894531 1016.847656 237.136719 C 1016.195312 237.523438 1012.558594 239.757812 1011.671875 244.1875 C 1010.882812 248.148438 1012.433594 253.144531 1016.570312 255.105469 C 1020.480469 256.960938 1025.585938 255.558594 1028.496094 251.613281 C 1026.882812 254.417969 1026.71875 257.769531 1028.144531 260.472656 C 1030.242188 264.449219 1035.464844 266.414062 1039.96875 264.347656 C 1044.085938 262.460938 1046.027344 256.6875 1043.496094 252.925781 C 1046.113281 257.941406 1051.277344 260.304688 1055.433594 259.011719 C 1057.957031 258.226562 1060.542969 255.957031 1061.066406 252.816406 C 1061.703125 249 1059.140625 244.835938 1054.683594 243.242188 C 1055.367188 243.179688 1059.886719 242.695312 1062.382812 238.925781 C 1065.160156 234.738281 1064.257812 228.273438 1059.757812 225.222656 Z M 1059.757812 225.222656 " fill-opacity="1" fill-rule="nonzero"/><path fill="#682b40" d="M 1036.207031 268.933594 C 1031.558594 268.933594 1027.039062 266.460938 1024.804688 262.230469 C 1024.300781 261.273438 1023.933594 260.261719 1023.699219 259.222656 C 1020.804688 259.996094 1017.710938 259.820312 1014.953125 258.511719 C 1008.964844 255.671875 1006.910156 248.785156 1007.976562 243.449219 C 1008.457031 241.042969 1009.5 239.121094 1010.667969 237.632812 C 1008.546875 235.578125 1007.144531 232.875 1006.8125 229.960938 C 1006.074219 223.488281 1010.550781 218.277344 1015.355469 216.472656 C 1019.3125 214.984375 1023.667969 215.613281 1027.289062 217.84375 C 1028.636719 214.691406 1031.046875 212.179688 1034.207031 210.992188 C 1040.46875 208.636719 1046.03125 212.882812 1046.644531 213.375 C 1049.179688 215.414062 1050.484375 217.921875 1051.140625 220.191406 C 1054.816406 219.339844 1058.703125 219.957031 1061.871094 222.101562 C 1067.929688 226.203125 1069.601562 234.859375 1065.527344 241.007812 C 1064.605469 242.398438 1063.507812 243.46875 1062.363281 244.289062 C 1064.386719 246.90625 1065.332031 250.167969 1064.785156 253.4375 C 1063.980469 258.257812 1060.070312 261.519531 1056.550781 262.609375 C 1053.496094 263.558594 1050.238281 263.203125 1047.324219 261.785156 C 1046.136719 264.445312 1044.0625 266.617188 1041.542969 267.773438 C 1039.828125 268.5625 1038.007812 268.933594 1036.207031 268.933594 Z M 1031.570312 253.855469 C 1030.785156 255.460938 1030.726562 257.289062 1031.476562 258.710938 C 1032.582031 260.804688 1035.625 262.183594 1038.394531 260.921875 C 1039.4375 260.445312 1040.3125 259.335938 1040.679688 258.035156 C 1040.9375 257.117188 1040.914062 256.230469 1040.621094 255.515625 C 1040.457031 255.238281 1040.300781 254.960938 1040.152344 254.675781 C 1039.226562 252.898438 1039.847656 250.710938 1041.566406 249.6875 C 1043.285156 248.664062 1045.503906 249.160156 1046.625 250.824219 C 1046.863281 251.175781 1047.078125 251.542969 1047.265625 251.921875 C 1049.175781 254.90625 1052.25 256.046875 1054.3125 255.410156 C 1055.621094 255.003906 1057.082031 253.769531 1057.347656 252.195312 C 1057.65625 250.34375 1056.269531 247.8125 1053.414062 246.792969 C 1051.746094 246.195312 1050.71875 244.523438 1050.941406 242.769531 C 1051.164062 241.011719 1052.578125 239.648438 1054.339844 239.488281 C 1054.898438 239.4375 1057.765625 239.070312 1059.238281 236.84375 C 1060.839844 234.425781 1060.5 230.277344 1057.640625 228.34375 C 1055.515625 226.90625 1052.453125 227.085938 1050.203125 228.789062 C 1048.988281 229.710938 1047.339844 229.808594 1046.027344 229.042969 C 1044.710938 228.273438 1043.988281 226.792969 1044.1875 225.285156 C 1044.203125 225.140625 1044.617188 221.421875 1041.921875 219.257812 C 1041.910156 219.246094 1039.179688 217.179688 1036.863281 218.046875 C 1034.746094 218.84375 1032.996094 222.027344 1033.859375 225.785156 C 1034.289062 227.667969 1033.222656 229.574219 1031.394531 230.195312 C 1029.5625 230.820312 1027.558594 229.953125 1026.753906 228.195312 C 1024.894531 224.136719 1020.726562 222.503906 1018.007812 223.527344 C 1016.28125 224.179688 1013.992188 226.339844 1014.304688 229.105469 C 1014.53125 231.074219 1016.027344 232.832031 1018.125 233.589844 C 1019.5 234.082031 1020.464844 235.324219 1020.601562 236.777344 C 1020.742188 238.230469 1020.027344 239.632812 1018.773438 240.378906 C 1018.109375 240.773438 1015.90625 242.261719 1015.371094 244.925781 C 1014.882812 247.367188 1015.804688 250.570312 1018.1875 251.699219 C 1020.21875 252.65625 1023.273438 252.050781 1025.207031 249.757812 C 1025.546875 249.164062 1025.9375 248.589844 1026.371094 248.039062 C 1027.585938 246.5 1029.773438 246.144531 1031.410156 247.226562 C 1033.046875 248.308594 1033.582031 250.460938 1032.644531 252.179688 C 1032.320312 252.769531 1031.960938 253.328125 1031.570312 253.855469 Z M 1031.570312 253.855469 " fill-opacity="1" fill-rule="nonzero"/><path fill="#f59eae" d="M 816.449219 471.882812 C 814.875 486.625 813.300781 501.367188 811.726562 516.109375 C 823.253906 520.46875 836.808594 519.066406 847.195312 512.433594 L 828.015625 467.675781 Z M 816.449219 471.882812 " fill-opacity="1" fill-rule="nonzero"/><path fill="#682b40" d="M 825.621094 522.371094 C 820.425781 522.371094 815.242188 521.472656 810.390625 519.636719 C 808.785156 519.03125 807.792969 517.414062 807.976562 515.710938 L 812.695312 471.480469 C 812.851562 470.050781 813.804688 468.828125 815.160156 468.335938 L 826.730469 464.132812 C 828.609375 463.449219 830.699219 464.351562 831.484375 466.191406 L 850.664062 510.953125 C 851.390625 512.648438 850.78125 514.621094 849.226562 515.613281 C 842.242188 520.070312 833.921875 522.371094 825.621094 522.371094 Z M 815.796875 513.488281 C 824.558594 515.976562 834.308594 515.003906 842.410156 510.839844 L 825.953125 472.4375 L 819.949219 474.621094 Z M 815.796875 513.488281 " fill-opacity="1" fill-rule="nonzero"/><path fill="#f59eae" d="M 823.335938 474.117188 C 860.398438 442.917969 897.871094 411.296875 926 373.1875 C 954.117188 335.0625 972.386719 289.152344 966.175781 244.949219 C 959.957031 200.722656 925.234375 159.804688 877.253906 152.4375 C 830.613281 145.261719 782.425781 172.128906 750.972656 206.480469 C 706.515625 192.570312 651.347656 193.542969 614.601562 223.175781 C 576.816406 253.640625 567.355469 306.457031 584.203125 347.820312 C 601.042969 389.160156 639.910156 419.683594 683.382812 438.53125 C 726.851562 457.355469 775.144531 465.878906 822.867188 474.242188 Z M 823.335938 474.117188 " fill-opacity="1" fill-rule="nonzero"/><g clip-path="url(#5e79d03d83)"><path fill="#682b40" d="M 822.867188 478.011719 C 822.652344 478.011719 822.433594 477.992188 822.21875 477.953125 C 774.914062 469.667969 726.003906 461.097656 681.882812 441.988281 C 632.238281 420.46875 596.304688 387.53125 580.707031 349.242188 C 562.007812 303.332031 574.972656 250.285156 612.234375 220.238281 C 651.753906 188.367188 708.746094 189.917969 749.816406 202.183594 C 779.164062 170.949219 827.652344 140.980469 877.828125 148.710938 C 925.144531 155.976562 963.007812 195.335938 969.910156 244.421875 C 975.664062 285.363281 961.148438 331.890625 929.035156 375.425781 C 900.484375 414.105469 862.5 446.078125 825.765625 477 C 825.34375 477.355469 824.847656 477.617188 824.3125 477.757812 L 823.84375 477.882812 C 823.523438 477.96875 823.195312 478.011719 822.867188 478.011719 Z M 823.335938 474.117188 L 823.355469 474.117188 Z M 694.742188 201.574219 C 667.296875 201.574219 639.128906 208.238281 616.972656 226.109375 C 582.832031 253.636719 570.519531 304.226562 587.695312 346.398438 C 602.542969 382.847656 637.058594 414.339844 684.882812 435.070312 C 727.734375 453.628906 775.636719 462.136719 822.050781 470.269531 C 858.09375 439.929688 895.238281 408.515625 922.964844 370.949219 C 953.898438 329.011719 967.917969 284.449219 962.441406 245.472656 C 956.101562 200.378906 920.035156 162.820312 876.683594 156.164062 C 828.507812 148.742188 781.597656 178.609375 753.753906 209.027344 C 752.765625 210.105469 751.246094 210.519531 749.847656 210.082031 C 733.472656 204.957031 714.289062 201.574219 694.742188 201.574219 Z M 694.742188 201.574219 " fill-opacity="1" fill-rule="nonzero"/></g><path fill="#682b40" d="M 906.976562 737.316406 C 906.292969 737.316406 905.597656 737.128906 904.972656 736.734375 C 902.351562 735.089844 900.082031 733.558594 898.027344 732.054688 C 897.066406 731.375 896.085938 730.65625 895.105469 729.878906 C 894.21875 729.238281 893.269531 728.488281 892.328125 727.679688 C 891.4375 726.996094 890.519531 726.230469 889.515625 725.347656 C 888.601562 724.589844 887.648438 723.746094 886.773438 722.910156 C 886.304688 722.5 885.738281 721.980469 885.1875 721.414062 C 884.277344 720.585938 883.386719 719.695312 882.519531 718.808594 C 881.753906 718.039062 880.976562 717.246094 880.226562 716.425781 C 880.070312 716.273438 879.800781 715.984375 879.53125 715.691406 C 878.527344 714.597656 877.546875 713.488281 876.566406 712.332031 C 855.316406 687.3125 843.613281 651.691406 843.613281 612.03125 C 843.613281 610.15625 843.636719 608.277344 843.699219 606.398438 C 843.722656 605.082031 843.785156 603.691406 843.851562 602.304688 C 843.847656 602.199219 843.851562 602 843.875 601.769531 C 843.898438 601.105469 843.9375 600.453125 843.976562 599.78125 C 843.976562 599.777344 843.992188 599.585938 843.992188 599.582031 C 844.074219 598.300781 844.15625 597.019531 844.261719 595.765625 L 844.449219 593.460938 C 844.582031 592.023438 844.710938 590.609375 844.859375 589.21875 C 845.078125 587.34375 845.292969 585.523438 845.546875 583.683594 C 845.738281 582.28125 845.929688 580.867188 846.160156 579.449219 C 846.191406 579.1875 846.238281 578.945312 846.289062 578.707031 C 846.371094 578.117188 846.457031 577.527344 846.5625 576.941406 C 846.8125 575.402344 847.09375 573.824219 847.398438 572.265625 C 847.730469 570.402344 848.117188 568.484375 848.53125 566.582031 L 848.582031 566.320312 C 848.980469 564.457031 849.390625 562.664062 849.847656 560.867188 C 850.171875 559.453125 850.558594 557.964844 850.949219 556.476562 C 851.105469 555.851562 851.265625 555.21875 851.445312 554.609375 C 851.851562 553.101562 852.304688 551.507812 852.78125 549.933594 C 852.816406 549.785156 852.878906 549.5625 852.960938 549.332031 C 853.488281 547.546875 854.035156 545.746094 854.621094 543.960938 C 855.179688 542.25 855.761719 540.523438 856.386719 538.792969 C 856.550781 538.28125 856.777344 537.664062 857.007812 537.039062 C 857.515625 535.621094 858.039062 534.1875 858.605469 532.777344 C 859.242188 531.070312 859.949219 529.304688 860.679688 527.519531 C 861.574219 525.339844 862.488281 523.214844 863.394531 521.214844 C 864.097656 519.636719 864.855469 518.015625 865.632812 516.417969 C 868 511.394531 870.703125 506.25 873.644531 501.171875 C 873.859375 500.78125 874.136719 500.296875 874.414062 499.835938 C 875.199219 498.46875 876.058594 497.046875 876.921875 495.644531 C 877 495.511719 877.113281 495.332031 877.257812 495.125 C 878.230469 493.542969 879.246094 491.960938 880.28125 490.398438 C 881.257812 488.902344 882.441406 487.121094 883.703125 485.378906 C 884.660156 483.957031 885.816406 482.339844 887.175781 480.523438 C 888.40625 478.875 889.605469 477.269531 890.867188 475.710938 C 892.046875 474.179688 893.339844 472.625 894.636719 471.070312 C 895.933594 469.515625 897.25 467.984375 898.609375 466.46875 C 899.875 465.042969 901.265625 463.496094 902.738281 461.980469 C 904.074219 460.558594 905.503906 459.089844 906.949219 457.664062 C 908.230469 456.359375 909.597656 455.058594 910.964844 453.78125 C 911.132812 453.609375 911.371094 453.378906 911.632812 453.15625 C 913.207031 451.683594 914.566406 450.460938 915.902344 449.324219 C 917.410156 447.980469 918.996094 446.636719 920.554688 445.378906 C 922.175781 444.074219 924.550781 444.324219 925.859375 445.941406 C 927.167969 447.5625 926.914062 449.9375 925.292969 451.246094 C 923.828125 452.429688 922.332031 453.699219 920.851562 455.011719 C 919.53125 456.140625 918.230469 457.308594 916.710938 458.734375 C 916.640625 458.800781 916.566406 458.863281 916.492188 458.925781 C 916.386719 459.007812 916.300781 459.105469 916.207031 459.199219 C 914.824219 460.496094 913.535156 461.722656 912.285156 462.992188 C 910.863281 464.390625 909.507812 465.792969 908.191406 467.191406 C 906.78125 468.640625 905.460938 470.113281 904.234375 471.492188 C 902.921875 472.953125 901.667969 474.414062 900.433594 475.898438 C 899.195312 477.378906 897.960938 478.859375 896.789062 480.378906 C 895.53125 481.9375 894.390625 483.464844 893.25 484.992188 C 891.929688 486.757812 890.839844 488.28125 889.882812 489.699219 C 888.644531 491.414062 887.523438 493.105469 886.582031 494.542969 C 885.5625 496.082031 884.574219 497.625 883.625 499.171875 C 883.578125 499.246094 883.53125 499.316406 883.480469 499.386719 C 883.464844 499.421875 883.367188 499.5625 883.347656 499.597656 C 882.523438 500.9375 881.699219 502.296875 880.917969 503.652344 C 880.652344 504.097656 880.421875 504.496094 880.214844 504.878906 C 877.335938 509.84375 874.734375 514.800781 872.433594 519.679688 C 871.671875 521.242188 870.953125 522.785156 870.273438 524.308594 C 869.394531 526.246094 868.519531 528.277344 867.664062 530.375 C 866.960938 532.089844 866.277344 533.78125 865.640625 535.496094 C 865.074219 536.90625 864.585938 538.253906 864.097656 539.625 C 863.890625 540.175781 863.695312 540.695312 863.523438 541.230469 C 862.882812 543.011719 862.328125 544.65625 861.792969 546.304688 C 861.210938 548.070312 860.671875 549.847656 860.15625 551.601562 C 860.128906 551.691406 860.101562 551.78125 860.066406 551.875 C 860.046875 551.945312 860.015625 552.066406 860.003906 552.109375 C 859.546875 553.613281 859.117188 555.140625 858.703125 556.664062 C 858.527344 557.261719 858.398438 557.785156 858.265625 558.3125 C 857.878906 559.804688 857.507812 561.226562 857.175781 562.644531 C 856.726562 564.421875 856.335938 566.128906 855.964844 567.855469 L 855.917969 568.09375 C 855.511719 569.988281 855.140625 571.820312 854.8125 573.65625 C 854.511719 575.1875 854.246094 576.6875 854 578.207031 C 853.890625 578.816406 853.8125 579.363281 853.734375 579.90625 C 853.722656 580.003906 853.703125 580.101562 853.683594 580.195312 C 853.675781 580.277344 853.628906 580.5 853.617188 580.578125 C 853.390625 581.953125 853.207031 583.328125 853.023438 584.707031 C 852.769531 586.507812 852.5625 588.273438 852.355469 590.058594 C 852.214844 591.375 852.089844 592.746094 851.964844 594.113281 L 851.777344 596.386719 C 851.675781 597.597656 851.597656 598.832031 851.519531 600.066406 C 851.46875 600.886719 851.429688 601.507812 851.410156 602.152344 C 851.40625 602.292969 851.394531 602.429688 851.375 602.566406 C 851.324219 603.96875 851.261719 605.28125 851.242188 606.585938 C 851.179688 608.449219 851.15625 610.238281 851.15625 612.03125 C 851.15625 649.90625 862.222656 683.792969 882.316406 707.453125 C 883.230469 708.53125 884.148438 709.570312 885.085938 710.585938 C 885.28125 710.800781 885.476562 711.011719 885.671875 711.210938 C 886.464844 712.066406 887.167969 712.789062 887.890625 713.511719 C 888.707031 714.347656 889.511719 715.160156 890.339844 715.90625 C 890.40625 715.96875 890.46875 716.027344 890.53125 716.09375 C 890.964844 716.542969 891.414062 716.953125 891.863281 717.347656 C 892.777344 718.214844 893.597656 718.9375 894.421875 719.621094 C 895.324219 720.414062 896.164062 721.117188 897.003906 721.761719 C 897.0625 721.804688 897.113281 721.851562 897.167969 721.898438 C 897.984375 722.597656 898.800781 723.246094 899.671875 723.878906 C 900.667969 724.667969 901.542969 725.300781 902.4375 725.9375 C 904.394531 727.367188 906.519531 728.800781 908.988281 730.355469 C 910.753906 731.460938 911.28125 733.789062 910.171875 735.554688 C 909.457031 736.691406 908.230469 737.316406 906.976562 737.316406 Z M 860.011719 552.011719 L 860.007812 552.011719 Z M 860.011719 552.011719 " fill-opacity="1" fill-rule="nonzero"/><path fill="#682b40" d="M 1144.222656 754.476562 C 1142.582031 754.476562 1141.070312 753.398438 1140.597656 751.742188 C 1140.023438 749.742188 1141.183594 747.652344 1143.1875 747.082031 C 1171.148438 739.085938 1193.230469 725.75 1208.8125 707.449219 C 1216.375 698.566406 1222.703125 688.214844 1227.617188 676.6875 C 1236.976562 654.699219 1241.125 628.59375 1239.613281 601.191406 C 1239.53125 599.554688 1239.429688 597.9375 1239.285156 596.296875 C 1239.28125 596.277344 1239.265625 596.113281 1239.257812 595.949219 C 1239.246094 595.886719 1239.242188 595.816406 1239.238281 595.746094 C 1239.226562 595.664062 1239.21875 595.578125 1239.214844 595.492188 C 1239.199219 595.269531 1239.1875 595.046875 1239.15625 594.820312 C 1239.144531 594.742188 1239.136719 594.667969 1239.132812 594.585938 C 1239.03125 593.144531 1238.886719 591.679688 1238.726562 590.234375 C 1238.714844 590.148438 1238.707031 590.0625 1238.703125 589.972656 C 1238.503906 588.234375 1238.304688 586.507812 1238.046875 584.78125 C 1237.808594 582.886719 1237.542969 581.085938 1237.234375 579.261719 C 1237.222656 579.179688 1237.210938 579.097656 1237.203125 579.011719 C 1236.921875 577.257812 1236.621094 575.480469 1236.28125 573.726562 C 1235.945312 571.851562 1235.574219 570.050781 1235.167969 568.226562 C 1234.78125 566.355469 1234.371094 564.53125 1233.921875 562.730469 C 1233.410156 560.5625 1232.96875 558.84375 1232.519531 557.261719 C 1232.0625 555.507812 1231.589844 553.84375 1231.09375 552.175781 C 1231.085938 552.140625 1231.058594 552.035156 1231.039062 551.96875 C 1231.011719 551.890625 1230.988281 551.816406 1230.964844 551.738281 C 1229.921875 548.164062 1228.738281 544.527344 1227.449219 540.929688 C 1226.816406 539.09375 1226.15625 537.320312 1225.476562 535.550781 C 1223.996094 531.695312 1222.5625 528.226562 1221.085938 524.949219 C 1220.308594 523.164062 1219.503906 521.433594 1218.683594 519.726562 C 1217.792969 517.820312 1216.972656 516.148438 1216.148438 514.574219 C 1215.296875 512.898438 1214.433594 511.273438 1213.546875 509.667969 C 1213.511719 509.601562 1213.476562 509.53125 1213.441406 509.464844 C 1213.390625 509.378906 1213.332031 509.285156 1213.300781 509.222656 C 1212.484375 507.671875 1211.628906 506.140625 1210.730469 504.609375 L 1210.453125 504.125 C 1209.542969 502.574219 1208.613281 501.003906 1207.644531 499.457031 C 1206.695312 497.875 1205.691406 496.292969 1204.539062 494.570312 C 1202.460938 491.390625 1200.226562 488.191406 1197.878906 485.027344 C 1196.738281 483.46875 1195.566406 481.949219 1194.355469 480.429688 C 1193.292969 479.050781 1192.210938 477.722656 1191.128906 476.4375 C 1191.09375 476.398438 1191.019531 476.304688 1190.988281 476.265625 C 1190.90625 476.179688 1190.746094 475.988281 1190.671875 475.898438 C 1188.066406 472.773438 1185.535156 469.929688 1182.9375 467.214844 C 1181.53125 465.699219 1180.21875 464.351562 1178.878906 463.054688 C 1177.582031 461.742188 1176.214844 460.421875 1174.640625 458.957031 C 1171.820312 456.304688 1168.851562 453.707031 1165.792969 451.210938 C 1164.179688 449.894531 1163.941406 447.519531 1165.257812 445.90625 C 1166.574219 444.292969 1168.949219 444.050781 1170.5625 445.367188 C 1173.757812 447.976562 1176.863281 450.695312 1179.789062 453.449219 C 1181.429688 454.96875 1182.875 456.363281 1184.191406 457.703125 C 1185.570312 459.035156 1186.972656 460.476562 1188.425781 462.046875 C 1191.078125 464.8125 1193.691406 467.746094 1196.378906 470.964844 C 1196.585938 471.183594 1196.761719 471.40625 1196.953125 471.648438 C 1198.050781 472.953125 1199.203125 474.367188 1200.289062 475.78125 C 1201.527344 477.328125 1202.757812 478.929688 1203.949219 480.550781 C 1206.371094 483.816406 1208.691406 487.140625 1210.832031 490.414062 C 1212.035156 492.210938 1213.101562 493.890625 1214.074219 495.511719 C 1215.046875 497.0625 1216.015625 498.699219 1216.984375 500.359375 L 1217.253906 500.824219 C 1218.207031 502.449219 1219.074219 504.007812 1219.890625 505.550781 C 1219.996094 505.714844 1220.128906 505.933594 1220.25 506.199219 C 1221.144531 507.828125 1222.019531 509.472656 1222.851562 511.121094 C 1223.710938 512.753906 1224.585938 514.53125 1225.5 516.503906 C 1226.34375 518.25 1227.183594 520.0625 1227.984375 521.898438 C 1229.5 525.265625 1230.988281 528.859375 1232.519531 532.847656 C 1233.230469 534.699219 1233.917969 536.554688 1234.566406 538.429688 C 1235.875 542.078125 1237.089844 545.808594 1238.164062 549.480469 C 1238.230469 549.671875 1238.285156 549.855469 1238.332031 550.046875 C 1238.847656 551.785156 1239.34375 553.535156 1239.796875 555.28125 C 1240.257812 556.894531 1240.726562 558.722656 1241.25 560.949219 C 1241.695312 562.730469 1242.132812 564.664062 1242.539062 566.644531 C 1242.976562 568.578125 1243.359375 570.464844 1243.695312 572.34375 C 1244.042969 574.132812 1244.355469 575.984375 1244.648438 577.824219 C 1244.683594 577.980469 1244.707031 578.140625 1244.722656 578.300781 C 1245.027344 580.132812 1245.292969 581.945312 1245.519531 583.757812 C 1245.785156 585.539062 1246 587.40625 1246.21875 589.277344 C 1246.226562 589.371094 1246.234375 589.46875 1246.242188 589.570312 C 1246.402344 591.023438 1246.542969 592.496094 1246.648438 593.949219 C 1246.679688 594.207031 1246.703125 594.460938 1246.722656 594.71875 C 1246.75 594.902344 1246.765625 595.085938 1246.769531 595.269531 C 1246.777344 595.339844 1246.78125 595.410156 1246.785156 595.480469 C 1246.953125 597.371094 1247.058594 599.082031 1247.148438 600.792969 C 1248.722656 629.328125 1244.367188 656.597656 1234.554688 679.640625 C 1229.34375 691.875 1222.613281 702.875 1214.554688 712.335938 C 1197.992188 731.789062 1174.679688 745.917969 1145.257812 754.332031 C 1144.914062 754.429688 1144.566406 754.476562 1144.222656 754.476562 Z M 1231.121094 552.171875 C 1231.121094 552.171875 1231.121094 552.175781 1231.121094 552.175781 C 1231.121094 552.175781 1231.121094 552.171875 1231.121094 552.171875 Z M 1231.117188 552.164062 C 1231.117188 552.164062 1231.117188 552.167969 1231.117188 552.167969 C 1231.117188 552.167969 1231.117188 552.164062 1231.117188 552.164062 Z M 1231.117188 552.164062 Z M 1213.535156 509.609375 Z M 1213.273438 509.039062 C 1213.273438 509.039062 1213.273438 509.042969 1213.273438 509.046875 C 1213.273438 509.042969 1213.273438 509.039062 1213.273438 509.039062 Z M 1213.273438 509.039062 " fill-opacity="1" fill-rule="nonzero"/><path fill="#682b40" d="M 1040.570312 762.863281 C 976.652344 762.863281 930.050781 747.640625 929.550781 747.472656 C 927.574219 746.816406 926.503906 744.683594 927.160156 742.707031 C 927.816406 740.730469 929.957031 739.664062 931.925781 740.316406 C 932.457031 740.496094 985.535156 757.789062 1055.855469 755.023438 C 1057.941406 754.972656 1059.691406 756.558594 1059.773438 758.640625 C 1059.855469 760.722656 1058.234375 762.476562 1056.152344 762.554688 C 1050.859375 762.765625 1045.660156 762.863281 1040.570312 762.863281 Z M 1040.570312 762.863281 " fill-opacity="1" fill-rule="nonzero"/><path fill="#682b40" d="M 1314.222656 883.304688 C 1313.191406 883.304688 1312.164062 882.882812 1311.417969 882.054688 C 1265.328125 830.816406 1242.246094 779.394531 1242.808594 729.21875 C 1243.050781 706.519531 1248.023438 690.472656 1260.042969 651.707031 C 1263.261719 641.320312 1266.910156 629.550781 1271.152344 615.46875 C 1283.417969 574.765625 1294.992188 533.46875 1305.554688 492.722656 C 1306.078125 490.707031 1308.136719 489.503906 1310.152344 490.019531 C 1312.167969 490.539062 1313.378906 492.597656 1312.855469 494.613281 C 1302.269531 535.457031 1290.667969 576.847656 1278.375 617.644531 C 1274.125 631.753906 1270.46875 643.539062 1267.246094 653.9375 C 1255.117188 693.0625 1250.582031 707.699219 1250.351562 729.300781 C 1249.808594 777.53125 1272.242188 827.226562 1317.027344 877.015625 C 1318.417969 878.5625 1318.292969 880.945312 1316.746094 882.339844 C 1316.023438 882.984375 1315.121094 883.304688 1314.222656 883.304688 Z M 1314.222656 883.304688 " fill-opacity="1" fill-rule="nonzero"/></svg>